<?xml version="1.0" encoding="utf-8"?>
<!-- Generator: Adobe Illustrator 25.2.3, SVG Export Plug-In . SVG Version: 6.00 Build 0)  -->
<svg version="1.1" id="Layer_1" xmlns="http://www.w3.org/2000/svg" xmlns:xlink="http://www.w3.org/1999/xlink" x="0px" y="0px"
	 viewBox="0 0 375 132" style="enable-background:new 0 0 375 132;" xml:space="preserve">
<style type="text/css">
	.st06{fill:none;stroke:#DE1049;}
	.st16{font-family:'Roboto', sans-serif; font-weight: 100;}
	.st26{font-size:9px;}
	.st36{fill:#9E9E9E;}
</style>
<path class="st06" d="M4.5,100.1c1.3,0,2.6,0,3.8,0c1.2,0,2.3,0,3.5,0c1.3,0,2.6-2.3,3.8-2.3c1.2,0,2.5,0,3.7,0
	c1.3,0,2.6,2.3,3.8,2.3c1.2,0,2.5-2.3,3.7-2.3c1.3,0,2.6,0,3.8,0c1.3,0,2.6,2.3,3.8,2.3c1.2,0,2.5,0,3.7,0c1.3,0,2.6,0,3.8,0
	c1.2,0,2.5,0,3.7,0c1.3,0,2.6,0,3.8,0c1.3,0,2.6,0,3.8,0c1.2,0,2.4,0,3.6,0c1.3,0,2.6,0,3.8,0c1.2,0,2.5-2.3,3.7-2.3
	c1.3,0,2.6,2.3,3.8,2.3c1.2,0,2.5,0,3.7,0c1.3,0,2.6,0,3.8,0c1.3,0,2.6,0,3.8,0c1.2,0,2.5,0,3.7,0c1.3,0,2.6,0,3.8,0
	c1.2,0,2.5,0,3.7,0c1.3,0,2.6,0,3.8,0c1.3,0,2.6-2.3,3.8-2.3c1.2,0,2.3,2.3,3.5,2.3c1.3,0,2.6-2.3,3.8-2.3c1.2,0,2.5,2.3,3.7,2.3
	c1.3,0,2.6,0,3.8,0c1.2,0,2.5-2.3,3.7-2.3c1.3,0,2.6,0,3.8,0c1.3,0,2.6,0,3.8,0c1.2,0,2.5-27.5,3.7-27.5c1.3,0,2.6,29.8,3.8,29.8
	c1.2,0,2.5,0,3.7,0c1.3,0,2.6,0,3.8,0s2.6-2.3,3.8-2.3c1.2,0,2.3,2.3,3.5,2.3c1.3,0,2.6-2.3,3.8-2.3c1.2,0,2.5,2.3,3.7,2.3
	c1.3,0,2.6,0,3.8,0c1.2,0,2.5,0,3.7,0c1.3,0,2.6-2.3,3.8-2.3c1.3,0,2.6,2.3,3.8,2.3c1.2,0,2.5,0,3.7,0c1.3,0,2.6,0,3.8,0
	c1.2,0,2.5-2.3,3.7-2.3c1.3,0,2.6,0,3.8,0c1.3,0,2.6,0,3.8,0c1.2,0,2.3,0,3.5,0c1.3,0,2.6,0,3.8,0c1.2,0,2.5,0,3.7,0
	c1.3,0,2.6,0,3.8,0c1.2,0,2.5,2.3,3.7,2.3c1.3,0,2.6,0,3.8,0c1.3,0,2.6,0,3.8,0c1.2,0,2.5-2.3,3.7-2.3c1.3,0,2.6,2.3,3.8,2.3
	c1.2,0,2.5,0,3.7,0c1.3,0,2.6,0,3.8,0c1.3,0,2.6,0,3.8,0c1.2,0,2.4,0,3.6,0c1.3,0,2.6,0,3.8,0c1.2,0,2.5,0,3.7,0c1.3,0,2.6,0,3.8,0
	c1.2,0,2.5-2.3,3.7-2.3c1.3,0,2.6,0,3.8,0c1.3,0,2.6,2.3,3.8,2.3c1.2,0,2.5,0,3.7,0c1.3,0,2.6-2.3,3.8-2.3c1.2,0,2.5,2.3,3.7,2.3
	c1.3,0,2.6,0,3.8,0s2.6-2.3,3.8-2.3c1.2,0,2.3,0,3.5,0c1.3,0,2.6,1.1,3.8,2.3"/>
<path class="st06" d="M4.8,82c1.3,0,2.6,0,3.8,0c1.2,0,2.3,0,3.5,0c1.3,0,2.6,0,3.8,0c1.2,0,2.5,0,3.7,0c1.3,0,2.6,0,3.8,0
	c1.2,0,2.5,0,3.7,0c1.3,0,2.6,0,3.8,0c1.3,0,2.6,0,3.8,0c1.2,0,2.5,0,3.7,0c1.3,0,2.6,0,3.8,0c1.2,0,2.5,0,3.7,0c1.3,0,2.6,0,3.8,0
	c1.3,0,2.6,0,3.8,0c1.2,0,2.4,0,3.6,0c1.3,0,2.6,0,3.8,0c1.2,0,2.5,0,3.7,0c1.3,0,2.6,0,3.8,0c1.2,0,2.5,0,3.7,0
	c1.3,0,2.6-2.3,3.8-2.3c1.3,0,2.6,0,3.8,0c1.2,0,2.5-1.5,3.7-2.3c1.3-0.8,2.6-0.8,3.8-2.3c1.2-1.5,2.5-59.6,3.7-59.6
	c1.3,0,2.6,62.6,3.8,64.2c1.3,1.5,2.6,2.3,3.8,2.3c1.2,0,2.3-2.3,3.5-2.3c1.3,0,2.6,2.3,3.8,2.3c1.2,0,2.5,0,3.7,0
	c1.3,0,2.6,0,3.8,0c1.2,0,2.5,0,3.7,0c1.3,0,2.6,0,3.8,0c1.3,0,2.6,0,3.8,0c1.2,0,2.5,0,3.7,0c1.3,0,2.6,0,3.8,0c1.2,0,2.5,0,3.7,0
	c1.3,0,2.6,0,3.8,0s2.6,0,3.8,0c1.2,0,2.3,0,3.5,0c1.3,0,2.6,0,3.8,0c1.2,0,2.5,0,3.7,0c1.3,0,2.6,0,3.8,0c1.2,0,2.5,0,3.7,0
	c1.3,0,2.6,0,3.8,0c1.3,0,2.6,0,3.8,0c1.2,0,2.5,0,3.7,0c1.3,0,2.6,0,3.8,0c1.2,0,2.5,0,3.7,0c1.3,0,2.6,0,3.8,0
	c1.3,0,2.6-2.3,3.8-2.3c1.2,0,2.3,2.3,3.5,2.3c1.3,0,2.6,0,3.8,0c1.2,0,2.5,0,3.7,0c1.3,0,2.6,0,3.8,0c1.2,0,2.5,0,3.7,0
	c1.3,0,2.6,0,3.8,0c1.3,0,2.6,0,3.8,0c1.2,0,2.5,0,3.7,0c1.3,0,2.6,0,3.8,0c1.2,0,2.5,0,3.7,0c1.3,0,2.6,0,3.8,0c1.3,0,2.6,0,3.8,0
	c1.2,0,2.4,0,3.6,0c1.3,0,2.6,0,3.8,0c1.2,0,2.5,0,3.7,0c1.3,0,2.6,0,3.8,0c1.2,0,2.5,0,3.7,0c1.3,0,2.6,0,3.8,0c1.3,0,2.6,0,3.8,0
	c1.2,0,2.5,0,3.7,0c1.3,0,2.6,0,3.8,0c1.2,0,2.5,0,3.7,0c1.3,0,2.6,0,3.8,0c1.3,0,2.6,0,3.8,0c1.2,0,2.3,0,3.5,0c1.3,0,2.6,0,3.8,0"
	/>
<path class="st06" d="M4.8,62.9C6,64,7.3,65.2,8.6,65.2c1.2,0,2.3-2.3,3.5-2.3c1.3,0,2.6,2.3,3.8,2.3c1.2,0,2.5,0,3.7,0
	c1.3,0,2.6,0,3.8,0c1.2,0,2.5,0,3.7,0c1.3,0,2.6,0,3.8,0c1.3,0,2.6,0,3.8,0c1.2,0,2.5,0,3.7,0c1.3,0,2.6,0,3.8,0c1.2,0,2.5,0,3.7,0
	c1.3,0,2.6,0,3.8,0c1.3,0,2.6,0,3.8,0c1.2,0,2.4,0,3.6,0c1.3,0,2.6,0,3.8,0c1.2,0,2.5,0,3.7,0c1.3,0,2.6-22.9,3.8-22.9
	c1.2,0,2.5,22.9,3.7,22.9c1.3,0,2.6,0,3.8,0c1.3,0,2.6,0,3.8,0c1.2,0,2.5-2.3,3.7-2.3c1.3,0,2.6,2.3,3.8,2.3c1.2,0,2.5-2.3,3.7-2.3
	c1.3,0,2.6,2.3,3.8,2.3c1.3,0,2.6,0,3.8,0c1.2,0,2.3,0,3.5,0c1.3,0,2.6,0,3.8,0c1.2,0,2.5,0,3.7,0c1.3,0,2.6-2.3,3.8-2.3
	c1.2,0,2.5,2.3,3.7,2.3c1.3,0,2.6,0,3.8,0c1.3,0,2.6,0,3.8,0c1.2,0,2.5,0,3.7,0c1.3,0,2.6,0,3.8,0c1.2,0,2.5,0,3.7,0
	c1.3,0,2.6,0,3.8,0s2.6,0,3.8,0c1.2,0,2.3,0,3.5,0c1.3,0,2.6,0,3.8,0c1.2,0,2.5,0,3.7,0c1.3,0,2.6-2.3,3.8-2.3
	c1.2,0,2.5,2.3,3.7,2.3c1.3,0,2.6-2.3,3.8-2.3c1.3,0,2.6,2.3,3.8,2.3c1.2,0,2.5,0,3.7,0c1.3,0,2.6-2.3,3.8-2.3
	c1.2,0,2.5,2.3,3.7,2.3c1.3,0,2.6,0,3.8,0c1.3,0,2.6,0,3.8,0c1.2,0,2.3-2.3,3.5-2.3c1.3,0,2.6,2.3,3.8,2.3c1.2,0,2.5-2.3,3.7-2.3
	c1.3,0,2.6,0,3.8,0c1.2,0,2.5,2.3,3.7,2.3c1.3,0,2.6,0,3.8,0c1.3,0,2.6,0,3.8,0c1.2,0,2.5,0,3.7,0c1.3,0,2.6,0,3.8,0
	c1.2,0,2.5,0,3.7,0c1.3,0,2.6,0,3.8,0c1.3,0,2.6-2.3,3.8-2.3c1.2,0,2.4,2.3,3.6,2.3c1.3,0,2.6,0,3.8,0c1.2,0,2.5,0,3.7,0
	c1.3,0,2.6,0,3.8,0c1.2,0,2.5,0,3.7,0c1.3,0,2.6,0,3.8,0c1.3,0,2.6,0,3.8,0c1.2,0,2.5,0,3.7,0c1.3,0,2.6,0,3.8,0c1.2,0,2.5,0,3.7,0
	c1.3,0,2.6,0,3.8,0c1.3,0,2.6,0,3.8,0c1.2,0,2.3,0,3.5,0c1.3,0,2.6,0,3.8,0"/>
<path class="st06" d="M4.8,46.3c1.3,0,2.6,0,3.8,0c1.2,0,2.3,0,3.5,0c1.3,0,2.6,0,3.8,0c1.2,0,2.5,0,3.7,0c1.3,0,2.6,0,3.8,0
	c1.2,0,2.5,0,3.7,0c1.3,0,2.6,0,3.8,0c1.3,0,2.6,0,3.8,0c1.2,0,2.5,0,3.7,0c1.3,0,2.6-27.5,3.8-27.5c1.2,0,2.5,27.5,3.7,27.5
	c1.3,0,2.6,0,3.8,0c1.3,0,2.6,0,3.8,0c1.2,0,2.4,0,3.6,0c1.3,0,2.6,0,3.8,0c1.2,0,2.5,0,3.7,0c1.3,0,2.6,0,3.8,0c1.2,0,2.5,0,3.7,0
	c1.3,0,2.6,0,3.8,0c1.3,0,2.6,0,3.8,0c1.2,0,2.5,0,3.7,0c1.3,0,2.6,0,3.8,0c1.2,0,2.5-2.3,3.7-2.3c1.3,0,2.6,2.3,3.8,2.3
	c1.3,0,2.6-2.3,3.8-2.3c1.2,0,2.3,2.3,3.5,2.3c1.3,0,2.6,0,3.8,0c1.2,0,2.5,0,3.7,0c1.3,0,2.6-2.3,3.8-2.3c1.2,0,2.5,2.3,3.7,2.3
	c1.3,0,2.6,0,3.8,0c1.3,0,2.6,0,3.8,0c1.2,0,2.5,0,3.7,0c1.3,0,2.6,0,3.8,0c1.2,0,2.5,0,3.7,0c1.3,0,2.6,0,3.8,0s2.6-2.3,3.8-2.3
	c1.2,0,2.3,2.3,3.5,2.3c1.3,0,2.6,0,3.8,0c1.2,0,2.5,0,3.7,0c1.3,0,2.6,0,3.8,0c1.2,0,2.5,0,3.7,0c1.3,0,2.6,0,3.8,0
	c1.3,0,2.6,0,3.8,0c1.2,0,2.5-2.3,3.7-2.3c1.3,0,2.6,2.3,3.8,2.3c1.2,0,2.5,0,3.7,0c1.3,0,2.6,0,3.8,0c1.3,0,2.6,0,3.8,0
	c1.2,0,2.3,0,3.5,0c1.3,0,2.6-2.3,3.8-2.3c1.2,0,2.5,2.3,3.7,2.3c1.3,0,2.6,0,3.8,0c1.2,0,2.5,0,3.7,0c1.3,0,2.6,0,3.8,0
	c1.3,0,2.6,0,3.8,0c1.2,0,2.5,0,3.7,0c1.3,0,2.6,0,3.8,0c1.2,0,2.5,0,3.7,0c1.3,0,2.6,0,3.8,0c1.3,0,2.6,0,3.8,0c1.2,0,2.4,0,3.6,0
	c1.3,0,2.6,0,3.8,0c1.2,0,2.5,0,3.7,0c1.3,0,2.6,0,3.8,0c1.2,0,2.5,0,3.7,0c1.3,0,2.6,0,3.8,0c1.3,0,2.6,0,3.8,0c1.2,0,2.5,0,3.7,0
	c1.3,0,2.6,0,3.8,0c1.2,0,2.5,0,3.7,0c1.3,0,2.6,0,3.8,0c1.3,0,2.6-2.3,3.8-2.3c1.2,0,2.3,2.3,3.5,2.3c1.3,0,2.6,0,3.8,0"/>
<text transform="matrix(1 0 0 1 300.5728 48.8467)" class="st16 st26">Paris</text>
<text transform="matrix(1 0 0 1 300.5728 67.8467)" class="st16 st26">Orlando</text>
<text transform="matrix(1 0 0 1 300.5728 84.8467)" class="st16 st26">Aleppo</text>
<text transform="matrix(1 0 0 1 300.5728 101.8467)" class="st16 st26">Las Vegas</text>
<text transform="matrix(1 0 0 1 5.611 118.9225)" class="st36 st16 st26">2015</text>
<text transform="matrix(1 0 0 1 269.611 118.9225)" class="st36 st16 st26">2020</text>
</svg>
