<?xml version="1.0" encoding="utf-8"?>
<!-- Generator: Adobe Illustrator 25.2.3, SVG Export Plug-In . SVG Version: 6.00 Build 0)  -->
<svg version="1.1" id="Layer_1" xmlns="http://www.w3.org/2000/svg" xmlns:xlink="http://www.w3.org/1999/xlink" x="0px" y="0px"
	 viewBox="0 0 375 310" style="enable-background:new 0 0 375 310;" xml:space="preserve">
<style type="text/css">
	.st07{fill:none;stroke:#8915EB;}
	.st17{font-family:'Roboto', sans-serif; font-weight:100;}
	.st27{font-size:9px;}
	.st37{fill:#9E9E9E;}
	.st47{font-family:'Roboto', sans-serif; font-weight:400;}
	.st57{font-size:12px;}
	.st67{fill:none;stroke:#000000;stroke-miterlimit:10;}
</style>
<path class="st07" d="M12.4,239.6c1.3,0,2.6,0,3.8,0c1.2,0,2.3,0,3.5,0c1.3,0,2.6,0,3.8,0c1.2,0,2.5,0,3.7,0c1.3,0,2.6,0,3.8,0
	c1.2,0,2.5,0,3.7,0c1.3,0,2.6,0,3.8,0c1.3,0,2.6,0,3.8,0c1.2,0,2.5,0,3.7,0c1.3,0,2.6,0,3.8,0c1.2,0,2.5,0,3.7,0c1.3,0,2.6,0,3.8,0
	c1.3,0,2.6,0,3.8,0c1.2,0,2.4,0,3.6,0c1.3,0,2.6,0,3.8,0c1.2,0,2.5,0,3.7,0c1.3,0,2.6,0,3.8,0c1.2,0,2.5,0,3.7,0c1.3,0,2.6,0,3.8,0
	c1.3,0,2.6,0,3.8,0c1.2,0,2.5,0,3.7,0c1.3,0,2.6,0,3.8,0c1.2,0,2.5,0,3.7,0c1.3,0,2.6,0,3.8,0c1.3,0,2.6,0,3.8,0c1.2,0,2.3,0,3.5,0
	c1.3,0,2.6,0,3.8,0c1.2,0,2.5,0,3.7,0c1.3,0,2.6,0,3.8,0c1.2,0,2.5,0,3.7,0c1.3,0,2.6,0,3.8,0c1.3,0,2.6,0,3.8,0c1.2,0,2.5,0,3.7,0
	c1.3,0,2.6,0,3.8,0c1.2,0,2.5,0,3.7,0c1.3,0,2.6,0,3.8,0s2.6,0,3.8,0c1.2,0,2.3,0,3.5,0c1.3,0,2.6,0,3.8,0c1.2,0,2.5,0,3.7,0
	c1.3,0,2.6,0,3.8,0c1.2,0,2.5,0,3.7,0c1.3,0,2.6,0,3.8,0c1.3,0,2.6,0,3.8,0c1.2,0,2.5,0,3.7,0c1.3,0,2.6,0,3.8,0c1.2,0,2.5,0,3.7,0
	c1.3,0,2.6,0,3.8,0c1.3,0,2.6,0,3.8,0c1.2,0,2.3,0,3.5,0c1.3,0,2.6,0,3.8,0c1.2,0,2.5,0,3.7,0c1.3,0,2.6,0,3.8,0c1.2,0,2.5,0,3.7,0
	c1.3,0,2.6,0,3.8,0c1.3,0,2.6,0,3.8,0c1.2,0,2.5,0,3.7,0c1.3,0,2.6,0,3.8,0c1.2,0,2.5,0,3.7,0c1.3,0,2.6-2.7,3.8-4.6
	c1.3-1.9,2.6-2.3,3.8-6.9c1.2-4.3,2.4-217.7,3.6-217.7c1.3,0,2.6,43.2,3.8,75.6c1.2,31.4,2.5,111.6,3.7,114.6
	c1.3,3.1,2.6,2.6,3.8,4.6c1.2,1.9,2.5,4.6,3.7,6.9c1.3,2.3,2.6,6.9,3.8,6.9c1.3,0,2.6-2.3,3.8-2.3c1.2,0,2.5,7.7,3.7,9.2
	c1.3,1.5,2.6,2.3,3.8,2.3c1.2,0,2.5-3.4,3.7-4.6c1.3-1.2,2.6-2.3,3.8-2.3s2.6,13.8,3.8,13.8c1.2,0,2.3-0.9,3.5-2.3
	c1.3-1.5,2.6-4.2,3.8-6.9"/>
<path class="st07" d="M12.4,279.4c1.3,0,2.6,0,3.8,0c1.2,0,2.3,0,3.5,0c1.3,0,2.6,0,3.8,0c1.2,0,2.5,0,3.7,0c1.3,0,2.6,0,3.8,0
	c1.2,0,2.5,0,3.7,0c1.3,0,2.6,0,3.8,0c1.3,0,2.6,0,3.8,0c1.2,0,2.5,0,3.7,0c1.3,0,2.6,0,3.8,0c1.2,0,2.5,0,3.7,0c1.3,0,2.6,0,3.8,0
	c1.3,0,2.6,0,3.8,0c1.2,0,2.4,0,3.6,0c1.3,0,2.6,0,3.8,0c1.2,0,2.5,0,3.7,0c1.3,0,2.6,0,3.8,0c1.2,0,2.5,0,3.7,0c1.3,0,2.6,0,3.8,0
	c1.3,0,2.6-4.6,3.8-4.6c1.3,0,2.7,5.3,4,4.5c1.1,0,2.1,0,3.3,0c1.3,0.4,2.7-2.2,4-2.2c1.3,0,2.6,2.3,3.8,2.3c1.3,0,2.6-2.4,4-2.3
	c1.1,0,2.2,0,3.3,0c1.3-0.1,2.6,2.3,4,2.3c1.3,0,2.5-2.3,3.8-2.3c1.3,0,2.5,0,3.8,0c1.3-0.1,2.5,2.3,3.8,2.3c1.3,0,2.6-2.3,3.8-2.3
	c1.5,0,3.1,3.3,4.6,2c0.8,0,1.4,0,2.2,0.1c1.8,1.4,3.5-3.2,5.3-1.7c0.8,0,1.4,0,2.2,0.1c1.5-1.4,3.1,2,4.6,2c1.3,0,2.6-2.3,3.8-2.3
	c1.2,0,2.3,2.3,3.5,2.3c1.3,0,2.6,0,3.8,0c1.2,0,2.5,0,3.7,0c1.3,0,2.6,0,3.8,0c1.2,0,2.5,0,3.7,0c1.3,0,2.6,0,3.8,0
	c1.3,0,2.6-3,3.8-4.6c1.2-1.5,2.5-4.6,3.7-4.6c1.3,0,2.6,2.3,3.8,2.3c1.2,0,2.5,0,3.7,0c1.3,0,2.6,6.9,3.8,6.9
	c1.3,0,2.6-2.3,3.8-2.3c1.4,0,2.8,3.3,4.2,2c1.1,0.1,1.7,0.1,2.7,0.1c1.5,1.3,2.9-5.1,4.4-4.3c1.1,0,1.9,0.1,2.9,0.1
	c1.5-0.8,2.9,1.2,4.4,2.1c1.3,0.8,2.6,2.3,3.8,2.3c1.3,0,2.6,0,3.8,0c1.2,0,2.5,0,3.7,0c1.3,0,2.6-2.3,3.8-2.3
	c1.2,0,2.5,2.3,3.7,2.3c1.3,0,2.6,0,3.8,0c1.3,0,2.6,0,3.8,0c1.2,0,2.4,0,3.6,0c1.3,0,2.6,0,3.8,0c1.2,0,2.5,0,3.7,0
	c1.3,0,2.6-29.8,3.8-29.8c1.2,0,2.5,18.5,3.7,22.9c1.3,4.6,2.6,6.9,3.8,6.9c1.3,0,2.6-2.3,3.8-2.3c1.2,0,2.5,0,3.7,0
	c1.3,0,2.6,2.3,3.8,2.3c1.2,0,2.5,0,3.7,0c1.3,0,2.6,0,3.8,0s2.6-4.6,3.8-4.6c1.2,0,2.3,1.6,3.5,2.3c1.3,0.8,2.6,1.6,3.8,2.3"/>
<path class="st07" d="M12.4,255.4c1.5,1.3,2.9,2.6,4.4,2.2c1,0,1.8,0,2.8,0.1c1.3,0.5,2.7-6.9,4-6.9c1.2,0,2.5,3.4,3.7,4.6
	c1.3,1.2,2.6,1.5,3.8,2.3c1.2,0.7,2.5,2.3,3.7,2.3c1.3,0,2.6-1.5,3.8-2.3c1.3-0.8,2.6-2.3,3.8-2.3c1.2,0,2.5,0,3.7,0
	c1.3,0,2.6,0,3.8,0c1.2,0,2.5,2.3,3.7,2.3c1.3,0,2.6-2.3,3.8-2.3c1.3,0,2.6,2.3,3.8,2.3c1.2,0,2.4-2.3,3.6-2.3
	c1.3,0,2.6,2.3,3.8,2.3c1.2,0,2.5-2.3,3.7-2.3c1.3,0,2.6,2.3,3.8,2.3c1.2,0,2.5-4.6,3.7-4.6c1.3,0,2.6,1.5,3.8,2.3
	c1.3,0.8,2.6,1.5,3.8,2.3c1.2,0.7,2.5,2.3,3.7,2.3c1.3,0,2.6-2.3,3.8-2.3c1.2,0,2.5,0,3.7,0c1.5,0,3.1-3.3,4.6-2c0.9,0,1.5,0,2.4,0
	c1.6-1.5,3.3,3.3,4.9,1.7c0.9,0,1.5,0,2.4,0c1.5,1.3,3-2,4.5-2c1.5,0,3,3.2,4.5,2.1c0.8,0,1.3-0.1,2-0.1c1.6,1.2,3.2-1,4.8-1.9
	c1.3-0.8,2.6-2.3,3.8-2.3c1.2,0,2.5,4.6,3.7,4.6c1.3,0,2.6-2.3,3.8-2.3c1.2,0,2.5,2.3,3.7,2.3c1.3,0,2.6-2.3,3.8-2.3
	s2.6,2.3,3.8,2.3c1.2,0,2.3,0,3.5,0c1.3,0,2.6,0,3.8,0c1.2,0,2.5,0,3.7,0c1.3,0,2.6,0,3.8,0c1.2,0,2.5-1.5,3.7-2.3
	c1.3-0.8,2.6-2.3,3.8-2.3c1.4,0,2.7,5.1,4.1,4.5c1.1,0,2,0,3.1,0c1.4,0.6,2.8-2.2,4.3-2.2c1.3,0,2.6,2.6,4,2.3c1.2,0,2.3,0,3.5,0
	c1.4,0.1,2.8-2.6,4.2-2.3c1.1,0,2.1,0,3.1,0c1.4-0.1,2.8,2.6,4.2,2.3c1.1,0,2.2,0,3.3,0c1.3,0.3,2.7-2.3,4-2.3c1.2,0,2.5,0,3.7,0
	c1.3,0,2.6,0,3.8,0c1.3,0,2.6,0,3.8,0c1.2,0,2.5,2.3,3.7,2.3c1.3,0,2.6-4.6,3.8-4.6c1.2,0,2.5,2.3,3.7,2.3c1.3,0,2.6,0,3.8,0
	c1.3,0,2.6,2.3,3.8,2.3c1.2,0,2.4-6.9,3.6-6.9c1.5,0,2.9,5.9,4.4,4.3c0.9-0.1,1.4-0.1,2.3-0.2c1.9,2,3.8-3.4,5.7-1.4
	c0.9-0.1,1.4-0.1,2.3-0.2c1.5-1.6,2.9,4.3,4.4,4.3c1.3,0,2.6-2.3,3.8-2.3c1.2,0,2.5,2.3,3.7,2.3c1.3,0,2.6-2.3,3.8-2.3
	c1.2,0,2.5,0,3.7,0c1.3,0,2.6,0,3.8,0s2.6,0,3.8,0c1.2,0,2.3,0,3.5,0c1.3,0,2.6-10.3,3.8-20.6"/>
<text transform="matrix(1 0 0 1 305.6464 236.3473)" class="st17 st27">Coronavirus</text>
<text transform="matrix(1 0 0 1 305.6464 280.3473)" class="st17 st27">Yemen</text>
<text transform="matrix(1 0 0 1 305.6464 257.3473)" class="st17 st27">India</text>
<text transform="matrix(1 0 0 1 11.1427 295.7008)" class="st37 st17 st27">2015</text>
<text transform="matrix(1 0 0 1 275.1427 295.7008)" class="st37 st17 st27">2020</text>
<text transform="matrix(1 0 0 1 113.7315 195.0855)"><tspan x="0" y="0" class="st47 st57">India’s recent</tspan><tspan x="0" y="14.4" class="st47 st57">second wave</tspan><tspan x="0" y="28.8" class="st47 st57">is gaining interest.</tspan></text>
<circle class="st67" cx="289.5" cy="246.5" r="16"/>
<g>
	<g>
		<path class="st67" d="M213.5,220.5c8.9-4.9,40.1-3.1,56.3,16.2"/>
		<g>
			<polygon points="264.5,237 264.6,236 269.5,236.4 269.6,231.5 270.6,231.5 270.5,237.5 			"/>
		</g>
	</g>
</g>
</svg>
