<?xml version="1.0" encoding="utf-8"?>
<!-- Generator: Adobe Illustrator 25.2.3, SVG Export Plug-In . SVG Version: 6.00 Build 0)  -->
<svg version="1.1" id="Layer_1" xmlns="http://www.w3.org/2000/svg" xmlns:xlink="http://www.w3.org/1999/xlink" x="0px" y="0px"
	 viewBox="0 0 600 400" style="enable-background:new 0 0 600 400;" xml:space="preserve">
<style type="text/css">
	.st0{opacity:0.3;fill:url(#SVGID_1_);enable-background:new    ;}
	.st1{fill:none;stroke:#AAAAAA;stroke-width:2;}
	.st2{fill:none;stroke:#AAAAAA;stroke-width:2;stroke-dasharray:1.99,1.99;}
	.st3{fill:none;stroke:#9E9E9E;}
	.st4{fill:none;stroke:#00BCD4;}
	.st5{fill:none;stroke:#9C27B0;}
	.st6{fill:#AAAAAA;}
	.st7{fill:none;stroke:#AAAAAA;}
	.st8{font-family:'Roboto-Regular';}
	.st9{font-size:12px;}
	.st10{font-family:'Roboto-Bold';}
	.st11{fill:#9C27B0;}
	.st12{font-size:10px;}
	.st13{fill:#9E9E9E;}
	.st14{fill:#00BCD4;}
</style>
<linearGradient id="SVGID_1_" gradientUnits="userSpaceOnUse" x1="299.4393" y1="-1.3546" x2="418.2628" y2="-1.3546" gradientTransform="matrix(1 0 0 -1 -118.5 206)">
	<stop  offset="0.2708" style="stop-color:#AAAAAA"/>
	<stop  offset="1" style="stop-color:#FFFFFF"/>
</linearGradient>
<path class="st0" d="M299.8,352.1l-118.8,0.7V62.6l118.8-0.7V352.1z"/>
<path class="st1" d="M180.9,62.6v0.5"/>
<path class="st2" d="M180.9,64.2v288.1"/>
<path class="st1" d="M180.9,352.8v0.5"/>
<path class="st3" d="M58.4,351.1c41.7-25.6,83.3-51.3,125-51.3s83.3,25.2,125,33.3c41.7,8.1,83.3,15.4,125,15.4s83.3,0,125,0"/>
<path class="st3" d="M58.4,351.1c41.7-15.4,83.3-30.8,125-30.8s83.3,30.8,124.9,30.8c41.7,0,83.3,0,125,0s83.3,0,125,0"/>
<path class="st3" d="M58.4,351.1c41.7-6.4,83.3-12.8,125-12.8s83.3,0,125,0s83.3,5.5,124.9,7.7s83.3,3.6,125,5.1"/>
<path class="st3" d="M58.4,351.1c41.7-12.8,83.3-25.6,125-25.6s83.3,21.4,125,23.1c41.7,1.7,83.3,2.6,124.9,2.6s83.3,0,125,0"/>
<path class="st3" d="M58.4,351.1c41.7-12.8,83.3-25.6,125-25.6s83.3,25.6,124.9,25.6c41.7,0,83.3,0,125,0s83.3,0,125,0"/>
<path class="st3" d="M58.4,348.6c41.7-20.5,83.3-41,125-41s83.3,39.3,125,41c41.7,1.7,83.3,2.6,124.9,2.6s83.3-1.3,125-2.6"/>
<path class="st3" d="M58.4,351.1c41.7-12.8,83.3-25.6,125-25.6s83.3,25.6,124.9,25.6c41.7,0,83.3,0,125,0s83.3,0,125,0"/>
<path class="st3" d="M58.4,348.6c41.7-10.3,83.3-20.5,125-20.5s83.3,16.2,125,18c41.7,1.7,83.3,2.6,125,2.6s83.3,0,125,0"/>
<path class="st3" d="M58.4,343.4c41.7-33.3,83.3-66.7,125-66.7s83.3,70.1,125,71.8c41.7,1.7,83.3,2.6,124.9,2.6s83.3-1.3,125-2.6"/>
<path class="st3" d="M58.4,351.1c41.7-42.3,83.3-84.6,125-84.6s83.3,50.4,125,64.1c41.7,13.7,83.3,20.5,124.9,20.5s83.3-1.3,125-2.6
	"/>
<path class="st4" d="M58.4,351.1c41.7-56.4,83.3-112.9,125-112.9s83.3,53.9,125,71.8c41.7,18,83.3,35.9,125,35.9s83.3-1.3,125-2.6"
	/>
<path class="st3" d="M58.4,348.6c41.7-15.4,83.3-30.8,125-30.8s83.3,33.3,125,33.3s83.3,0,125,0s83.3,0,125,0"/>
<path class="st3" d="M58.4,348.6c41.7-15.4,83.3-30.8,125-30.8s83.3,33.3,125,33.3s83.3,0,125,0s83.3,0,125,0"/>
<path class="st3" d="M58.4,351.1c41.7-14.1,83.3-28.2,125-28.2s83.3,24,125,25.6c41.7,1.7,83.3,2.6,124.9,2.6s83.3,0,125,0"/>
<path class="st3" d="M58.4,351.1c41.7-28.2,83.3-56.4,125-56.4s83.3,52.1,125,53.9c41.7,1.7,83.3,2.6,124.9,2.6s83.3-1.3,125-2.6"/>
<path class="st3" d="M58.4,351.1c41.7-24.4,83.3-48.7,125-48.7s83.3,48.7,124.9,48.7c41.7,0,83.3,0,125,0s83.3,0,125,0"/>
<path class="st3" d="M58.4,340.9c41.7-26.9,83.3-53.9,125-53.9s83.3,59.8,125,61.6c41.7,1.7,83.3,2.6,124.9,2.6s83.3,0,125,0"/>
<path class="st5" d="M58.4,338.3c41.7-121.8,83.3-243.6,125-243.6s83.3,49.2,124.9,84.6c41.7,35.5,83.3,124.8,125,128.2
	c41.7,3.4,83.3,4.3,125,5.1"/>
<path class="st3" d="M58.4,333.1c41.7-46.1,83.3-92.3,125-92.3S266.7,346,308.4,346s83.3,0,125,0s83.3,1.3,125,2.6"/>
<path class="st3" d="M58.4,351.1c41.7-16.7,83.3-33.3,125-33.3s83.3,20.5,125,25.6s83.3,7.7,124.9,7.7s83.3-1.3,125-2.6"/>
<path class="st3" d="M58.4,351.1c41.7-10.3,83.3-20.5,125-20.5s83.3,20.5,124.9,20.5c41.7,0,83.3,0,125,0s83.3,0,125,0"/>
<path class="st3" d="M52.3,110.6v21.9"/>
<path class="st6" d="M50.4,112.3l0.3,0.4l1.6-1.9l1.6,1.9l0.3-0.4l-2-2.3L50.4,112.3z"/>
<path class="st7" d="M52.2,328.7v-17.4"/>
<path class="st6" d="M54.2,327l-0.4-0.4l-1.6,1.9l-1.6-1.9l-0.3,0.4l2,2.3L54.2,327z"/>
<path d="M292.8,292.9c0.2,0.3,0.5,0.4,0.8,0.2l4.6-2.6c0.3-0.2,0.4-0.5,0.2-0.8c-0.2-0.3-0.5-0.4-0.8-0.2l-4.1,2.3l-2.3-4.1
	c-0.2-0.3-0.5-0.4-0.8-0.2c-0.3,0.2-0.4,0.5-0.2,0.8L292.8,292.9z M261.9,229.3c6.6,1.2,17,7.3,24.4,17.9
	c7.4,10.7,11.8,25.9,6.5,45.2l1.1,0.3c5.4-19.7,0.9-35.3-6.7-46.2c-7.5-10.9-18.2-17.2-25.2-18.4L261.9,229.3z"/>
<text transform="matrix(1 0 0 1 65.8467 37.7236)"><tspan x="0" y="0" class="st8 st9">If we line up major</tspan><tspan x="0" y="14.4" class="st8 st9">crisis events since</tspan><tspan x="0" y="28.8" class="st8 st9">2015 when they </tspan><tspan x="0" y="43.2" class="st8 st9">saw </tspan><tspan x="24.7" y="43.2" class="st10 st9">peak </tspan><tspan x="53.8" y="43.2" class="st8 st9">interest...</tspan></text>
<text transform="matrix(1 0 0 1 502.8301 306.0112)" class="st11 st10 st12">Coronavirus</text>
<text transform="matrix(1 0 0 1 25.3481 119.1475)"><tspan x="0" y="0" class="st13 st8 st12">More</tspan><tspan x="-17.4" y="12" class="st13 st8 st12">searches</tspan></text>
<text transform="matrix(1 0 0 1 27.4722 323.1475)" class="st13 st8 st12">Less</text>
<text transform="matrix(1 0 0 1 43.0335 366.1936)"><tspan x="0" y="0" class="st13 st8 st12">One month</tspan><tspan x="0" y="12" class="st13 st8 st12">before</tspan></text>
<text transform="matrix(1 0 0 1 169.0335 366.1936)"><tspan x="0" y="0" class="st13 st8 st12">Peak</tspan><tspan x="0" y="12" class="st13 st8 st12">interest</tspan></text>
<text transform="matrix(1 0 0 1 282.0335 366.1936)"><tspan x="0" y="0" class="st13 st8 st12">One month</tspan><tspan x="0" y="12" class="st13 st8 st12">after</tspan></text>
<text transform="matrix(1 0 0 1 401.0335 366.1936)"><tspan x="0" y="0" class="st13 st8 st12">Two months</tspan><tspan x="0" y="12" class="st13 st8 st12">after</tspan></text>
<text transform="matrix(1 0 0 1 527.0334 366.1936)"><tspan x="0" y="0" class="st13 st8 st12">Three months</tspan><tspan x="0" y="12" class="st13 st8 st12">after</tspan></text>
<text transform="matrix(1 0 0 1 191.9304 181.3696)"><tspan x="0" y="0" class="st8 st9">...we can see most</tspan><tspan x="0" y="14.4" class="st8 st9">events lose interest</tspan><tspan x="0" y="28.8" class="st8 st9">after just </tspan><tspan x="50.6" y="28.8" class="st10 st9">one month</tspan><tspan x="108.2" y="28.8" class="st8 st9">.</tspan></text>
<text transform="matrix(1 0 0 1 487.135 337.7276)" class="st14 st10 st12">Hurricane Maria</text>
<text transform="matrix(1 0 0 1 426.4808 253.118)"><tspan x="0" y="0" class="st8 st9">The only </tspan><tspan x="48.1" y="0" class="st10 st9">exceptions </tspan><tspan x="0" y="14.4" class="st8 st9">are coronavirus and </tspan><tspan x="0" y="28.8" class="st8 st9">2017’s Hurricane Maria.</tspan></text>
</svg>
