<?xml version="1.0" encoding="utf-8"?>
<!-- Generator: Adobe Illustrator 25.2.3, SVG Export Plug-In . SVG Version: 6.00 Build 0)  -->
<svg version="1.1" id="Layer_1" xmlns="http://www.w3.org/2000/svg" xmlns:xlink="http://www.w3.org/1999/xlink" x="0px" y="0px"
	 viewBox="0 0 375 367" style="enable-background:new 0 0 375 367;" xml:space="preserve">
<style type="text/css">
	.st05{fill:none;stroke:#43DDDD;}
	.st15{fill:none;stroke:#71E7E0;}
	.st25{font-family:'Roboto', sans-serif; font-weight: 100;}
	.st35{font-size:9px;}
	.st45{font-family:'Roboto', sans-serif; font-weight: 400;}
	.st55{font-size:12px;}
	.st65{fill:none;stroke:#000000;stroke-miterlimit:10;}
	.st75{fill:#9E9E9E;}
</style>
<path class="st05" d="M5.6,57.5c1.3,0,2.6,0,3.8,0c1.2,0,2.3,0,3.5,0c1.3,0,2.6-45.8,3.8-45.8c1.2,0,2.5,22.6,3.7,29.8
	c1.3,7.5,2.6,13.8,3.8,13.8c1.2,0,2.5,0,3.7,0c1.3,0,2.6,2.3,3.8,2.3c1.3,0,2.6-2.3,3.8-2.3c1.2,0,2.5,2.3,3.7,2.3
	c1.3,0,2.6,0,3.8,0c1.2,0,2.5,0,3.7,0c1.3,0,2.6,0,3.8,0c1.3,0,2.6-2.3,3.8-2.3c1.2,0,2.4,2.3,3.6,2.3c1.3,0,2.6-2.3,3.8-2.3
	c1.2,0,2.5,2.3,3.7,2.3c1.3,0,2.6,0,3.8,0c1.2,0,2.5,0,3.7,0c1.3,0,2.6,0,3.8,0s2.6,0,3.8,0c1.2,0,2.5,0,3.7,0c1.3,0,2.6,0,3.8,0
	c1.2,0,2.5,0,3.7,0c1.3,0,2.6,0,3.8,0c1.3,0,2.6,0,3.8,0c1.2,0,2.3,0,3.5,0c1.3,0,2.6,0,3.8,0c1.2,0,2.5,0,3.7,0c1.3,0,2.6,0,3.8,0
	c1.2,0,2.5,0,3.7,0c1.3,0,2.6,0,3.8,0c1.3,0,2.6,0,3.8,0c1.2,0,2.5,0,3.7,0c1.3,0,2.6,0,3.8,0c1.2,0,2.5,0,3.7,0c1.3,0,2.6,0,3.8,0
	s2.6,0,3.8,0c1.2,0,2.3,0,3.5,0c1.3,0,2.6,0,3.8,0c1.2,0,2.5,0,3.7,0c1.3,0,2.6,0,3.8,0c1.2,0,2.5,0,3.7,0c1.3,0,2.6,0,3.8,0
	c1.3,0,2.6,0,3.8,0c1.2,0,2.5,0,3.7,0c1.3,0,2.6,0,3.8,0c1.2,0,2.5,0,3.7,0c1.3,0,2.6,0,3.8,0s2.6,0,3.8,0c1.2,0,2.3,0,3.5,0
	c1.3,0,2.6,0,3.8,0c1.2,0,2.5,0,3.7,0c1.3,0,2.6,0,3.8,0c1.2,0,2.5-2.3,3.7-2.3c1.3,0,2.6,2.3,3.8,2.3c1.3,0,2.6,0,3.8,0
	c1.2,0,2.5,0,3.7,0c1.3,0,2.6,0,3.8,0c1.2,0,2.5,0,3.7,0c1.3,0,2.6-2.3,3.8-2.3c1.3,0,2.6,2.3,3.8,2.3c1.2,0,2.4,0,3.6,0
	c1.3,0,2.6,0,3.8,0c1.2,0,2.5,0,3.7,0c1.3,0,2.6,0,3.8,0c1.2,0,2.5,0,3.7,0c1.3,0,2.6,0,3.8,0s2.6,0,3.8,0c1.2,0,2.5,0,3.7,0
	c1.3,0,2.6,0,3.8,0c1.2,0,2.5,0,3.7,0c1.3,0,2.6,0,3.8,0c1.3,0,2.6,0,3.8,0c1.2,0,2.3,0,3.5,0c1.3,0,2.6,0,3.8,0"/>
<path class="st05" d="M5.6,78.3c1.3,0,2.6,0,3.8,0c1.2,0,2.3,0,3.5,0c1.3,0,2.6,0,3.8,0c1.2,0,2.5,0,3.7,0c1.3,0,2.6,0,3.8,0
	c1.2,0,2.5,0,3.7,0c1.3,0,2.6,0,3.8,0c1.3,0,2.6,0,3.8,0c1.2,0,2.5,0,3.7,0c1.3,0,2.6,0,3.8,0c1.2,0,2.5,0,3.7,0
	c1.3,0,2.6-11.5,3.8-11.5c1.3,0,2.6,0,3.8,0c1.2,0,2.4,5,3.6,6.9c1.3,2,2.6,4.6,3.8,4.6c1.2,0,2.5,0,3.7,0c1.3,0,2.6,0,3.8,0
	c1.2,0,2.5-2.3,3.7-2.3c1.3,0,2.6,2.3,3.8,2.3s2.6-2.3,3.8-2.3c1.2,0,2.5,0,3.7,0c1.3,0,2.6-4.6,3.8-4.6c1.2,0,2.5,6.9,3.7,6.9
	c1.3,0,2.6-2.3,3.8-2.3c1.3,0,2.6,2.3,3.8,2.3c1.2,0,2.3-2.3,3.5-2.3c1.3,0,2.6,0,3.8,0c1.2,0,2.5,2.3,3.7,2.3c1.3,0,2.6,0,3.8,0
	c1.2,0,2.5,0,3.7,0c1.3,0,2.6,0,3.8,0c1.3,0,2.6,0,3.8,0c1.2,0,2.5,0,3.7,0c1.3,0,2.6,0,3.8,0c1.2,0,2.5,0,3.7,0c1.3,0,2.6,0,3.8,0
	s2.6,0,3.8,0c1.2,0,2.3,0,3.5,0c1.3,0,2.6,0,3.8,0c1.2,0,2.5-2.3,3.7-2.3c1.3,0,2.6,2.3,3.8,2.3c1.2,0,2.5,0,3.7,0
	c1.3,0,2.6-2.3,3.8-2.3c1.3,0,2.6,2.3,3.8,2.3c1.2,0,2.5,0,3.7,0c1.3,0,2.6-2.3,3.8-2.3c1.2,0,2.5,2.3,3.7,2.3c1.3,0,2.6,0,3.8,0
	s2.6,0,3.8,0c1.2,0,2.3,0,3.5,0c1.3,0,2.6-2.3,3.8-2.3c1.2,0,2.5,2.3,3.7,2.3c1.3,0,2.6,0,3.8,0c1.2,0,2.5,0,3.7,0
	c1.3,0,2.6-2.3,3.8-2.3c1.3,0,2.6,2.3,3.8,2.3c1.2,0,2.5,0,3.7,0c1.3,0,2.6,0,3.8,0c1.2,0,2.5,0,3.7,0c1.3,0,2.6,0,3.8,0
	c1.3,0,2.6,0,3.8,0c1.2,0,2.4,0,3.6,0c1.3,0,2.6,0,3.8,0c1.2,0,2.5,0,3.7,0c1.3,0,2.6,0,3.8,0c1.2,0,2.5,0,3.7,0c1.3,0,2.6,0,3.8,0
	s2.6,0,3.8,0c1.2,0,2.5,0,3.7,0c1.3,0,2.6,0,3.8,0c1.2,0,2.5,0,3.7,0c1.3,0,2.6,0,3.8,0c1.3,0,2.6,0,3.8,0c1.2,0,2.3,0,3.5,0
	c1.3,0,2.6,0,3.8,0"/>
<path class="st15" d="M5.6,99c1.3,0,2.6,0,3.8,0c1.2,0,2.3,0,3.5,0c1.3,0,2.6,0,3.8,0c1.2,0,2.5,0,3.7,0c1.3,0,2.6,0,3.8,0
	c1.2,0,2.5,0,3.7,0c1.3,0,2.6,0,3.8,0c1.3,0,2.6,0,3.8,0c1.2,0,2.5,0,3.7,0c1.3,0,2.6,0,3.8,0c1.2,0,2.5,0,3.7,0c1.3,0,2.6,0,3.8,0
	c1.3,0,2.6,0,3.8,0c1.2,0,2.4,0,3.6,0c1.3,0,2.6,0,3.8,0c1.2,0,2.5-22.9,3.7-22.9c1.3,0,2.6,19,3.8,20.6c1.2,1.5,2.5,2.3,3.7,2.3
	c1.3,0,2.6,0,3.8,0s2.6,0,3.8,0c1.2,0,2.5,0,3.7,0c1.3,0,2.6,0,3.8,0c1.2,0,2.5,0,3.7,0c1.3,0,2.6,0,3.8,0c1.3,0,2.6,0,3.8,0
	c1.2,0,2.3,0,3.5,0c1.3,0,2.6,0,3.8,0c1.2,0,2.5,0,3.7,0c1.3,0,2.6,0,3.8,0c1.2,0,2.5,0,3.7,0c1.3,0,2.6,0,3.8,0c1.3,0,2.6,0,3.8,0
	c1.2,0,2.5,0,3.7,0c1.3,0,2.6,0,3.8,0c1.2,0,2.5,0,3.7,0c1.3,0,2.6,0,3.8,0s2.6,0,3.8,0c1.2,0,2.3,0,3.5,0c1.3,0,2.6,0,3.8,0
	c1.2,0,2.5,0,3.7,0c1.3,0,2.6,0,3.8,0c1.2,0,2.5,0,3.7,0c1.3,0,2.6,0,3.8,0c1.3,0,2.6,0,3.8,0c1.2,0,2.5,0,3.7,0c1.3,0,2.6,0,3.8,0
	c1.2,0,2.5,0,3.7,0c1.3,0,2.6,0,3.8,0s2.6,0,3.8,0c1.2,0,2.3,0,3.5,0c1.3,0,2.6,0,3.8,0c1.2,0,2.5,0,3.7,0c1.3,0,2.6,0,3.8,0
	c1.2,0,2.5,0,3.7,0c1.3,0,2.6,0,3.8,0c1.3,0,2.6,0,3.8,0c1.2,0,2.5,0,3.7,0c1.3,0,2.6,0,3.8,0c1.2,0,2.5,0,3.7,0c1.3,0,2.6,0,3.8,0
	c1.3,0,2.6,0,3.8,0c1.2,0,2.4,0,3.6,0c1.3,0,2.6,0,3.8,0c1.2,0,2.5,0,3.7,0c1.3,0,2.6,0,3.8,0c1.2,0,2.5,0,3.7,0c1.3,0,2.6,0,3.8,0
	s2.6,0,3.8,0c1.2,0,2.5,0,3.7,0c1.3,0,2.6,0,3.8,0c1.2,0,2.5,0,3.7,0c1.3,0,2.6,0,3.8,0c1.3,0,2.6,0,3.8,0c1.2,0,2.3,0,3.5,0
	c1.3,0,2.6,0,3.8,0"/>
<path class="st15" d="M5.6,119.4c1.3,0,2.6,0,3.8,0c1.2,0,2.3,0,3.5,0c1.3,0,2.6,0,3.8,0c1.2,0,2.5,0,3.7,0c1.3,0,2.6-2.3,3.8-2.3
	c1.2,0,2.5,2.3,3.7,2.3c1.3,0,2.6,0,3.8,0c1.3,0,2.6,0,3.8,0c1.2,0,2.5-2.3,3.7-2.3c1.3,0,2.6,0,3.8,0c1.2,0,2.5,2.3,3.7,2.3
	c1.3,0,2.6,0,3.8,0c1.3,0,2.6-2.3,3.8-2.3c1.2,0,2.4,2.3,3.6,2.3c1.3,0,2.6,0,3.8,0c1.2,0,2.5,0,3.7,0c1.3,0,2.6,0,3.8,0
	c1.2,0,2.5-0.8,3.7-2.3c1.3-1.6,2.6-36.7,3.8-36.7s2.6,35.1,3.8,36.7c1.2,1.5,2.5,2.3,3.7,2.3c1.3,0,2.6-2.3,3.8-2.3
	c1.2,0,2.5,2.3,3.7,2.3c1.3,0,2.6-2.3,3.8-2.3c1.3,0,2.6,2.3,3.8,2.3c1.2,0,2.3-2.3,3.5-2.3c1.3,0,2.6,2.3,3.8,2.3
	c1.2,0,2.5-2.3,3.7-2.3c1.3,0,2.6,2.3,3.8,2.3c1.2,0,2.5,0,3.7,0c1.3,0,2.6-2.3,3.8-2.3c1.3,0,2.6,0,3.8,0c1.2,0,2.5,2.3,3.7,2.3
	c1.3,0,2.6,0,3.8,0c1.2,0,2.5,0,3.7,0c1.3,0,2.6,0,3.8,0s2.6,0,3.8,0c1.2,0,2.3,0,3.5,0c1.3,0,2.6,0,3.8,0c1.2,0,2.5,0,3.7,0
	c1.3,0,2.6-2.3,3.8-2.3c1.2,0,2.5,2.3,3.7,2.3c1.3,0,2.6-2.3,3.8-2.3c1.3,0,2.6,2.3,3.8,2.3c1.2,0,2.5,0,3.7,0c1.3,0,2.6,0,3.8,0
	c1.2,0,2.5,0,3.7,0c1.3,0,2.6-2.3,3.8-2.3s2.6,2.3,3.8,2.3c1.2,0,2.3,0,3.5,0c1.3,0,2.6,0,3.8,0c1.2,0,2.5-2.3,3.7-2.3
	c1.3,0,2.6,2.3,3.8,2.3c1.2,0,2.5,0,3.7,0c1.3,0,2.6,0,3.8,0c1.3,0,2.6,0,3.8,0c1.2,0,2.5,0,3.7,0c1.3,0,2.6,0,3.8,0
	c1.2,0,2.5-2.3,3.7-2.3c1.3,0,2.6,2.3,3.8,2.3c1.3,0,2.6,0,3.8,0c1.2,0,2.4,0,3.6,0c1.3,0,2.6-2.3,3.8-2.3c1.2,0,2.5,2.3,3.7,2.3
	c1.3,0,2.6,0,3.8,0c1.2,0,2.5,0,3.7,0c1.3,0,2.6-2.3,3.8-2.3s2.6,2.3,3.8,2.3c1.2,0,2.5,0,3.7,0c1.3,0,2.6,0,3.8,0
	c1.2,0,2.5,0,3.7,0c1.3,0,2.6-2.3,3.8-2.3c1.3,0,2.6,2.3,3.8,2.3c1.2,0,2.3,0,3.5,0c1.3,0,2.6,0,3.8,0"/>
<path class="st15" d="M7.1,202.2c1.3,0,2.6,0,3.8,0c1.2,0,2.3,0,3.5,0c1.3,0,2.6,0,3.8,0c1.2,0,2.5,0,3.7,0c1.3,0,2.6,0,3.8,0
	c1.2,0,2.5,0,3.7,0c1.3,0,2.6-2.3,3.8-2.3c1.3,0,2.6,2.3,3.8,2.3c1.2,0,2.5,0,3.7,0c1.3,0,2.6,0,3.8,0c1.2,0,2.5,0,3.7,0
	c1.3,0,2.6,0,3.8,0c1.3,0,2.6,0,3.8,0c1.2,0,2.4,0,3.6,0c1.3,0,2.6,0,3.8,0c1.2,0,2.5-2.3,3.7-2.3c1.3,0,2.6,2.3,3.8,2.3
	c1.2,0,2.5,0,3.7,0c1.3,0,2.6,0,3.8,0c1.3,0,2.6,0,3.8,0c1.2,0,2.5,0,3.7,0c1.3,0,2.6,0,3.8,0c1.2,0,2.5,0,3.7,0c1.3,0,2.6,0,3.8,0
	c1.3,0,2.6,0,3.8,0c1.2,0,2.3,0,3.5,0c1.3,0,2.6-2.3,3.8-2.3c1.2,0,2.5,2.3,3.7,2.3c1.3,0,2.6,0,3.8,0c1.2,0,2.5-2.3,3.7-2.3
	c1.3,0,2.6,2.3,3.8,2.3c1.3,0,2.6-100.8,3.8-100.8c1.2,0,2.5,48.2,3.7,64.2c1.3,16.5,2.6,32.1,3.8,32.1c1.2,0,2.5-2.3,3.7-2.3
	c1.3,0,2.6,1.5,3.8,2.3c1.3,0.8,2.6,2.3,3.8,2.3c1.2,0,2.3,0,3.5,0c1.3,0,2.6,0,3.8,0c1.2,0,2.5,0,3.7,0c1.3,0,2.6,0,3.8,0
	c1.2,0,2.5,2.3,3.7,2.3c1.3,0,2.6,0,3.8,0c1.3,0,2.6,0,3.8,0c1.2,0,2.5-2.3,3.7-2.3c1.3,0,2.6,2.3,3.8,2.3c1.2,0,2.5,0,3.7,0
	c1.3,0,2.6,0,3.8,0c1.3,0,2.6,0,3.8,0c1.2,0,2.3,0,3.5,0c1.3,0,2.6-2.3,3.8-2.3c1.2,0,2.5,0,3.7,0c1.3,0,2.6,2.3,3.8,2.3
	c1.2,0,2.5,0,3.7,0c1.3,0,2.6,0,3.8,0c1.3,0,2.6,0,3.8,0c1.2,0,2.5,0,3.7,0c1.3,0,2.6,0,3.8,0c1.2,0,2.5,0,3.7,0
	c1.3,0,2.6-4.6,3.8-4.6c1.3,0,2.6,4.6,3.8,4.6c1.2,0,2.4,0,3.6,0c1.3,0,2.6,0,3.8,0c1.2,0,2.5,0,3.7,0c1.3,0,2.6,0,3.8,0
	c1.2,0,2.5,0,3.7,0c1.3,0,2.6,0,3.8,0c1.3,0,2.6,0,3.8,0c1.2,0,2.5,0,3.7,0c1.3,0,2.6,0,3.8,0c1.2,0,2.5,0,3.7,0c1.3,0,2.6,0,3.8,0
	c1.3,0,2.6,0,3.8,0c1.2,0,2.3,0,3.5,0c1.3,0,2.6,0,3.8,0"/>
<path class="st15" d="M7.1,222.8c1.3,0,2.6,0,3.8,0c1.2,0,2.3,0,3.5,0c1.3,0,2.6,0,3.8,0c1.2,0,2.5,0,3.7,0c1.3,0,2.6,0,3.8,0
	c1.2,0,2.5,0,3.7,0c1.3,0,2.6,0,3.8,0c1.3,0,2.6,0,3.8,0c1.2,0,2.5,0,3.7,0c1.3,0,2.6,0,3.8,0c1.2,0,2.5,0,3.7,0c1.3,0,2.6,0,3.8,0
	c1.3,0,2.6,0,3.8,0c1.2,0,2.4,0,3.6,0c1.3,0,2.6,0,3.8,0c1.2,0,2.5,0,3.7,0c1.3,0,2.6,0,3.8,0c1.2,0,2.5,0,3.7,0c1.3,0,2.6,0,3.8,0
	c1.3,0,2.6,0,3.8,0c1.2,0,2.5,0,3.7,0c1.3,0,2.6,0,3.8,0c1.2,0,2.5,0,3.7,0c1.3,0,2.6,0,3.8,0c1.3,0,2.6,0,3.8,0c1.2,0,2.3,0,3.5,0
	c1.3,0,2.6,0,3.8,0c1.2,0,2.5,0,3.7,0c1.3,0,2.6,0,3.8,0c1.2,0,2.5,0,3.7,0c1.3,0,2.6,0,3.8,0c1.3,0,2.6,0,3.8,0c1.2,0,2.5,0,3.7,0
	c1.3,0,2.6,0,3.8,0c1.2,0,2.5,0,3.7,0c1.3,0,2.6,0,3.8,0c1.3,0,2.6,0,3.8,0c1.2,0,2.3,0,3.5,0c1.3,0,2.6,0,3.8,0c1.2,0,2.5,0,3.7,0
	c1.3,0,2.6,0,3.8,0c1.2,0,2.5-0.8,3.7-2.3c1.3-1.6,2.6-27.5,3.8-27.5c1.3,0,2.6,29.8,3.8,29.8c1.2,0,2.5,0,3.7,0c1.3,0,2.6,0,3.8,0
	c1.2,0,2.5,0,3.7,0c1.3,0,2.6,0,3.8,0c1.3,0,2.6,0,3.8,0c1.2,0,2.3,0,3.5,0c1.3,0,2.6,0,3.8,0c1.2,0,2.5,0,3.7,0c1.3,0,2.6,0,3.8,0
	c1.2,0,2.5-2.3,3.7-2.3c1.3,0,2.6,2.3,3.8,2.3c1.3,0,2.6,0,3.8,0c1.2,0,2.5,0,3.7,0c1.3,0,2.6,0,3.8,0c1.2,0,2.5,0,3.7,0
	c1.3,0,2.6,0,3.8,0c1.3,0,2.6,0,3.8,0c1.2,0,2.4,0,3.6,0c1.3,0,2.6,0,3.8,0c1.2,0,2.5,0,3.7,0c1.3,0,2.6,0,3.8,0c1.2,0,2.5,0,3.7,0
	c1.3,0,2.6,0,3.8,0c1.3,0,2.6,0,3.8,0c1.2,0,2.5,0,3.7,0c1.3,0,2.6,0,3.8,0c1.2,0,2.5,0,3.7,0c1.3,0,2.6,0,3.8,0c1.3,0,2.6,0,3.8,0
	c1.2,0,2.3,0,3.5,0c1.3,0,2.6,0,3.8,0"/>
<path class="st15" d="M7.1,243.2c1.3,0,2.6,0,3.8,0c1.2,0,2.3,0,3.5,0c1.3,0,2.6,0,3.8,0c1.2,0,2.5,0,3.7,0c1.3,0,2.6,0,3.8,0
	c1.2,0,2.5,0,3.7,0c1.3,0,2.6,0,3.8,0c1.3,0,2.6,0,3.8,0c1.2,0,2.5,0,3.7,0c1.3,0,2.6,0,3.8,0c1.2,0,2.5,0,3.7,0c1.3,0,2.6,0,3.8,0
	c1.3,0,2.6,0,3.8,0c1.2,0,2.4,0,3.6,0c1.3,0,2.6,0,3.8,0c1.2,0,2.5-2.3,3.7-2.3c1.3,0,2.6,2.3,3.8,2.3c1.2,0,2.5,0,3.7,0
	c1.3,0,2.6,0,3.8,0c1.3,0,2.6,0,3.8,0c1.2,0,2.5,0,3.7,0c1.3,0,2.6,0,3.8,0c1.2,0,2.5,0,3.7,0c1.3,0,2.6,0,3.8,0c1.3,0,2.6,0,3.8,0
	c1.2,0,2.3,0,3.5,0c1.3,0,2.6,0,3.8,0c1.2,0,2.5,0,3.7,0c1.3,0,2.6,0,3.8,0c1.2,0,2.5,0,3.7,0c1.3,0,2.6,0,3.8,0c1.3,0,2.6,0,3.8,0
	c1.2,0,2.5,0,3.7,0c1.3,0,2.6,0,3.8,0c1.2,0,2.5-2.3,3.7-2.3c1.3,0,2.6,2.3,3.8,2.3c1.3,0,2.6-2.3,3.8-2.3c1.2,0,2.3,2.3,3.5,2.3
	c1.3,0,2.6,0,3.8,0c1.2,0,2.5,0,3.7,0c1.3,0,2.6,0,3.8,0c1.2,0,2.5,0,3.7,0c1.3,0,2.6,0,3.8,0c1.3,0,2.6,0,3.8,0c1.2,0,2.5,0,3.7,0
	c1.3,0,2.6,0,3.8,0c1.2,0,2.5,0,3.7,0c1.3,0,2.6,0,3.8,0c1.3,0,2.6,0,3.8,0c1.2,0,2.3,0,3.5,0c1.3,0,2.6,0,3.8,0c1.2,0,2.5,0,3.7,0
	c1.3,0,2.6,0,3.8,0c1.2,0,2.5,0,3.7,0c1.3,0,2.6-50.4,3.8-50.4c1.3,0,2.6,46.6,3.8,48.1c1.2,1.5,2.5,2.3,3.7,2.3
	c1.3,0,2.6-2.3,3.8-2.3c1.2,0,2.5,2.3,3.7,2.3c1.3,0,2.6-2.3,3.8-2.3c1.3,0,2.6,2.3,3.8,2.3c1.2,0,2.4,0,3.6,0c1.3,0,2.6,0,3.8,0
	c1.2,0,2.5,0,3.7,0c1.3,0,2.6,0,3.8,0c1.2,0,2.5,0,3.7,0c1.3,0,2.6,0,3.8,0c1.3,0,2.6,0,3.8,0c1.2,0,2.5,0,3.7,0c1.3,0,2.6,0,3.8,0
	c1.2,0,2.5,0,3.7,0c1.3,0,2.6,0,3.8,0c1.3,0,2.6,0,3.8,0c1.2,0,2.3-2.3,3.5-2.3c1.3,0,2.6,1.1,3.8,2.3"/>
<path class="st15" d="M7.1,283.8c1.3,0,2.6,0,3.8,0c1.2,0,2.3,0,3.5,0c1.3,0,2.6,0,3.8,0c1.2,0,2.5,0,3.7,0c1.3,0,2.6,0,3.8,0
	c1.2,0,2.5,0,3.7,0c1.3,0,2.6,0,3.8,0c1.3,0,2.6,0,3.8,0c1.2,0,2.5,0,3.7,0c1.3,0,2.6,0,3.8,0c1.2,0,2.5,0,3.7,0c1.3,0,2.6,0,3.8,0
	c1.3,0,2.6,0,3.8,0c1.2,0,2.4,0,3.6,0c1.3,0,2.6,0,3.8,0c1.2,0,2.5,0,3.7,0c1.3,0,2.6,0,3.8,0c1.2,0,2.5,0,3.7,0c1.3,0,2.6,0,3.8,0
	c1.3,0,2.6,0,3.8,0c1.2,0,2.5,0,3.7,0c1.3,0,2.6,0,3.8,0c1.2,0,2.5,0,3.7,0c1.3,0,2.6-2.3,3.8-2.3c1.3,0,2.6,2.3,3.8,2.3
	c1.2,0,2.3,0,3.5,0c1.3,0,2.6,0,3.8,0c1.2,0,2.5,0,3.7,0c1.3,0,2.6,0,3.8,0c1.2,0,2.5,0,3.7,0c1.3,0,2.6,0,3.8,0c1.3,0,2.6,0,3.8,0
	c1.2,0,2.5,0,3.7,0c1.3,0,2.6,0,3.8,0c1.2,0,2.5,0,3.7,0c1.3,0,2.6,0,3.8,0c1.3,0,2.6,0,3.8,0c1.2,0,2.3,0,3.5,0c1.3,0,2.6,0,3.8,0
	c1.2,0,2.5,0,3.7,0c1.3,0,2.6,0,3.8,0c1.2,0,2.5,0,3.7,0c1.3,0,2.6,0,3.8,0c1.3,0,2.6,0,3.8,0c1.2,0,2.5,0,3.7,0c1.3,0,2.6,0,3.8,0
	c1.2,0,2.5,0,3.7,0c1.3,0,2.6,0,3.8,0c1.3,0,2.6,0,3.8,0c1.2,0,2.3,0,3.5,0c1.3,0,2.6,0,3.8,0c1.2,0,2.5,0,3.7,0c1.3,0,2.6,0,3.8,0
	c1.2,0,2.5,0,3.7,0c1.3,0,2.6,0,3.8,0c1.3,0,2.6-43.5,3.8-43.5c1.2,0,2.5,43.5,3.7,43.5c1.3,0,2.6,0,3.8,0c1.2,0,2.5,0,3.7,0
	c1.3,0,2.6,0,3.8,0c1.3,0,2.6,0,3.8,0c1.2,0,2.4,0,3.6,0c1.3,0,2.6,0,3.8,0c1.2,0,2.5,0,3.7,0c1.3,0,2.6,0,3.8,0c1.2,0,2.5,0,3.7,0
	c1.3,0,2.6,0,3.8,0c1.3,0,2.6,0,3.8,0c1.2,0,2.5,0,3.7,0c1.3,0,2.6,0,3.8,0c1.2,0,2.5,0,3.7,0c1.3,0,2.6,0,3.8,0c1.3,0,2.6,0,3.8,0
	c1.2,0,2.3,0,3.5,0c1.3,0,2.6,0,3.8,0"/>
<path class="st15" d="M6.9,261.5c1.3,1.1,2.6,2.3,3.8,2.3c1.2,0,2.3,0,3.5,0c1.3,0,2.6,0,3.8,0c1.2,0,2.5,0,3.7,0c1.3,0,2.6,0,3.8,0
	c1.2,0,2.5,0,3.7,0c1.3,0,2.6,0,3.8,0c1.3,0,2.6,0,3.8,0c1.2,0,2.5,0,3.7,0c1.3,0,2.6,0,3.8,0c1.2,0,2.5,0,3.7,0c1.3,0,2.6,0,3.8,0
	c1.3,0,2.6,0,3.8,0c1.2,0,2.4,0,3.6,0c1.3,0,2.6,0,3.8,0c1.2,0,2.5,0,3.7,0c1.3,0,2.6,0,3.8,0c1.2,0,2.5,0,3.7,0c1.3,0,2.6,0,3.8,0
	c1.3,0,2.6,0,3.8,0c1.2,0,2.5,0,3.7,0c1.3,0,2.6,0,3.8,0c1.2,0,2.5,0,3.7,0c1.3,0,2.6,0,3.8,0c1.3,0,2.6,0,3.8,0c1.2,0,2.3,0,3.5,0
	c1.3,0,2.6,0,3.8,0c1.2,0,2.5,0,3.7,0c1.3,0,2.6,0,3.8,0c1.2,0,2.5,0,3.7,0c1.3,0,2.6,0,3.8,0c1.3,0,2.6,0,3.8,0c1.2,0,2.5,0,3.7,0
	c1.3,0,2.6,0,3.8,0c1.2,0,2.5,0,3.7,0c1.3,0,2.6,0,3.8,0c1.3,0,2.6,0,3.8,0c1.2,0,2.3,0,3.5,0c1.3,0,2.6,0,3.8,0c1.2,0,2.5,0,3.7,0
	c1.3,0,2.6,0,3.8,0c1.2,0,2.5,0,3.7,0c1.3,0,2.6,0,3.8,0c1.3,0,2.6,0,3.8,0c1.2,0,2.5,0,3.7,0c1.3,0,2.6,0,3.8,0c1.2,0,2.5,0,3.7,0
	c1.3,0,2.6,0,3.8,0c1.3,0,2.6,0,3.8,0c1.2,0,2.3,0,3.5,0c1.3,0,2.6,0,3.8,0c1.2,0,2.5,0,3.7,0c1.3,0,2.6,0,3.8,0c1.2,0,2.5,0,3.7,0
	c1.3,0,2.6,0,3.8,0s2.6,0,3.8,0c1.2,0,2.5,0,3.7,0c1.3,0,2.6-3,3.8-4.6c1.2-1.5,2.5-1.5,3.7-4.6c1.3-3.2,2.6-48.1,3.8-48.1
	c1.3,0,2.6,53.4,3.8,55c1.2,1.5,2.4,2.3,3.6,2.3c1.3,0,2.6,0,3.8,0c1.2,0,2.5,0,3.7,0c1.3,0,2.6,0,3.8,0c1.2,0,2.5,0,3.7,0
	c1.3,0,2.6,0,3.8,0c1.3,0,2.6,0,3.8,0c1.2,0,2.5,0,3.7,0c1.3,0,2.6,0,3.8,0c1.2,0,2.5,0,3.7,0c1.3,0,2.6,0,3.8,0c1.3,0,2.6,0,3.8,0
	c1.2,0,2.3,0,3.5,0c1.3,0,2.6,0,3.8,0"/>
<path class="st05" d="M7.7,305.6c1.3,0,2.6,0,3.8,0c1.2,0,2.3,0,3.5,0c1.3,0,2.6,0,3.8,0c1.2,0,2.5,0,3.7,0c1.3,0,2.6,0,3.8,0
	c1.2,0,2.5,0,3.7,0c1.3,0,2.6,0,3.8,0s2.6,0,3.8,0c1.2,0,2.5,0,3.7,0c1.3,0,2.6-2.3,3.8-2.3c1.2,0,2.5,2.3,3.7,2.3
	c1.3,0,2.6,0,3.8,0c1.3,0,2.6,0,3.8,0c1.2,0,2.4,0,3.6,0c1.3,0,2.6,0,3.8,0c1.2,0,2.5,0,3.7,0c1.3,0,2.6,0,3.8,0c1.2,0,2.5,0,3.7,0
	c1.3,0,2.6,0,3.8,0c1.3,0,2.6,0,3.8,0c1.2,0,2.5,0,3.7,0c1.3,0,2.6,0,3.8,0c1.2,0,2.5,0,3.7,0c1.3,0,2.6,0,3.8,0c1.3,0,2.6,0,3.8,0
	c1.2,0,2.3,0,3.5,0c1.3,0,2.6,0,3.8,0c1.2,0,2.5,0,3.7,0c1.3,0,2.6,0,3.8,0c1.2,0,2.5,0,3.7,0c1.3,0,2.6,0,3.8,0c1.3,0,2.6,0,3.8,0
	c1.2,0,2.5,0,3.7,0c1.3,0,2.6,0,3.8,0c1.2,0,2.5,0,3.7,0c1.3,0,2.6,0,3.8,0c1.3,0,2.6,0,3.8,0c1.2,0,2.3,0,3.5,0c1.3,0,2.6,0,3.8,0
	c1.2,0,2.5,0,3.7,0c1.3,0,2.6,0,3.8,0c1.2,0,2.5,0,3.7,0c1.3,0,2.6,0,3.8,0c1.3,0,2.6,0,3.8,0c1.2,0,2.5,0,3.7,0c1.3,0,2.6,0,3.8,0
	c1.2,0,2.5,0,3.7,0c1.3,0,2.6,0,3.8,0c1.3,0,2.6,0,3.8,0c1.2,0,2.3,0,3.5,0c1.3,0,2.6,0,3.8,0c1.2,0,2.5,0,3.7,0c1.3,0,2.6,0,3.8,0
	c1.2,0,2.5,0,3.7,0c1.3,0,2.6,0,3.8,0s2.6,0,3.8,0c1.2,0,2.5,0,3.7,0c1.3,0,2.6,0,3.8,0c1.2,0,2.5,0,3.7,0c1.3,0,2.6,0,3.8,0
	c1.3,0,2.6,0,3.8,0c1.2,0,2.4,0,3.6,0c1.3,0,2.6,0,3.8,0c1.2,0,2.5,0,3.7,0c1.3,0,2.6,0,3.8,0c1.2,0,2.5,0,3.7,0
	c1.3,0,2.6-18.3,3.8-18.3c1.3,0,2.6,18.3,3.8,18.3c1.2,0,2.5,0,3.7,0c1.3,0,2.6,0,3.8,0c1.2,0,2.5,0,3.7,0c1.3,0,2.6,0,3.8,0
	c1.3,0,2.6,0,3.8,0c1.2,0,2.3-2.3,3.5-2.3c1.3,0,2.6,1.1,3.8,2.3"/>
<path class="st05" d="M7.1,162.3c1.3,0,2.6,0,3.8,0c1.2,0,2.3-4.6,3.5-4.6c1.3,0,2.6,4.6,3.8,4.6c1.2,0,2.5-3.4,3.7-4.6
	c1.3-1.2,2.6-2.3,3.8-2.3c1.2,0,2.5,6.9,3.7,6.9c1.3,0,2.6,0,3.8,0c1.3,0,2.6-4.6,3.8-4.6c1.2,0,2.5,4.6,3.7,4.6
	c1.3,0,2.6-4.6,3.8-4.6c1.2,0,2.5,0,3.7,0c1.3,0,2.6,4.6,3.8,4.6c1.3,0,2.6-4.6,3.8-4.6c1.2,0,2.4,4.6,3.6,4.6
	c1.3,0,2.6-2.3,3.8-2.3c1.2,0,2.5,2.3,3.7,2.3c1.3,0,2.6-2.3,3.8-2.3c1.2,0,2.5,2.3,3.7,2.3c1.3,0,2.6,0,3.8,0
	c1.3,0,2.6,2.3,3.8,2.3c1.2,0,2.5-1.5,3.7-2.3c1.3-0.8,2.6-2.3,3.8-2.3c1.2,0,2.5,0,3.7,0c1.3,0,2.6,2.3,3.8,2.3c1.3,0,2.6,0,3.8,0
	c1.2,0,2.3-2.3,3.5-2.3c1.3,0,2.6,0,3.8,0c1.2,0,2.5,0,3.7,0c1.3,0,2.6-2.3,3.8-2.3c1.2,0,2.5,0,3.7,0c1.3,0,2.6-50.4,3.8-50.4
	c1.3,0,2.6,28.3,3.8,36.7c1.2,8.1,2.5,10.8,3.7,13.8c1.3,3.1,2.6,4.6,3.8,4.6c1.2,0,2.5,0,3.7,0c1.3,0,2.6-2.3,3.8-2.3
	c1.3,0,2.6,2.3,3.8,2.3c1.2,0,2.3,0,3.5,0c1.3,0,2.6,0,3.8,0c1.2,0,2.5-0.8,3.7-2.3c1.3-1.5,2.6-6.9,3.8-6.9c1.2,0,2.5,3.4,3.7,4.6
	c1.3,1.2,2.6,1.5,3.8,2.3c1.3,0.8,2.6,2.3,3.8,2.3c1.2,0,2.5-4.6,3.7-4.6c1.3,0,2.6,4.6,3.8,4.6c1.2,0,2.5-2.3,3.7-2.3
	c1.3,0,2.6,0,3.8,0c1.3,0,2.6,0,3.8,0c1.2,0,2.3,0,3.5,0c1.3,0,2.6-2.3,3.8-2.3c1.2,0,2.5,2.3,3.7,2.3c1.3,0,2.6,0,3.8,0
	c1.2,0,2.5-2.3,3.7-2.3c1.3,0,2.6,0,3.8,0c1.3,0,2.6,2.3,3.8,2.3c1.2,0,2.5,0,3.7,0c1.3,0,2.6,0,3.8,0c1.2,0,2.5,0,3.7,0
	c1.3,0,2.6,0,3.8,0c1.3,0,2.6,0,3.8,0c1.2,0,2.4,0,3.6,0c1.3,0,2.6,0,3.8,0c1.2,0,2.5,0,3.7,0c1.3,0,2.6-2.3,3.8-2.3
	c1.2,0,2.5,2.3,3.7,2.3c1.3,0,2.6-2.3,3.8-2.3c1.3,0,2.6,2.3,3.8,2.3c1.2,0,2.5-2.3,3.7-2.3c1.3,0,2.6,0,3.8,0c1.2,0,2.5,0,3.7,0
	c1.3,0,2.6,2.3,3.8,2.3c1.3,0,2.6-27.5,3.8-27.5c1.2,0,2.3,25.2,3.5,25.2c1.3,0,2.6,0,3.8,0"/>
<path class="st15" d="M7.1,140.2c1.3,0,2.6,0,3.8,0c1.2,0,2.3,0,3.5,0c1.3,0,2.6,0,3.8,0c1.2,0,2.5,0,3.7,0c1.3,0,2.6-2.3,3.8-2.3
	c1.2,0,2.5,2.3,3.7,2.3c1.3,0,2.6,0,3.8,0c1.3,0,2.6,0,3.8,0c1.2,0,2.5,0,3.7,0c1.3,0,2.6,0,3.8,0c1.2,0,2.5,0,3.7,0
	c1.3,0,2.6-2.3,3.8-2.3c1.3,0,2.6,2.3,3.8,2.3c1.2,0,2.4,0,3.6,0c1.3,0,2.6,0,3.8,0c1.2,0,2.5,0,3.7,0c1.3,0,2.6,0,3.8,0
	c1.2,0,2.5,0,3.7,0c1.3,0,2.6,0,3.8,0c1.3,0,2.6,0,3.8,0c1.2,0,2.5-22.9,3.7-22.9c1.3,0,2.6,22.9,3.8,22.9c1.2,0,2.5,0,3.7,0
	c1.3,0,2.6,0,3.8,0c1.3,0,2.6,0,3.8,0c1.2,0,2.3,0,3.5,0c1.3,0,2.6,0,3.8,0c1.2,0,2.5,0,3.7,0c1.3,0,2.6,0,3.8,0c1.2,0,2.5,0,3.7,0
	c1.3,0,2.6,0,3.8,0c1.3,0,2.6,0,3.8,0c1.2,0,2.5-2.3,3.7-2.3c1.3,0,2.6,2.3,3.8,2.3c1.2,0,2.5,0,3.7,0c1.3,0,2.6,0,3.8,0
	c1.3,0,2.6-2.3,3.8-2.3c1.2,0,2.3,2.3,3.5,2.3c1.3,0,2.6,0,3.8,0c1.2,0,2.5,0,3.7,0c1.3,0,2.6,0,3.8,0c1.2,0,2.5,0,3.7,0
	c1.3,0,2.6,0,3.8,0c1.3,0,2.6,0,3.8,0c1.2,0,2.5,0,3.7,0c1.3,0,2.6,0,3.8,0c1.2,0,2.5,0,3.7,0c1.3,0,2.6,0,3.8,0c1.3,0,2.6,0,3.8,0
	c1.2,0,2.3,0,3.5,0c1.3,0,2.6,0,3.8,0c1.2,0,2.5,0,3.7,0c1.3,0,2.6,0,3.8,0c1.2,0,2.5-2.3,3.7-2.3c1.3,0,2.6,2.3,3.8,2.3
	c1.3,0,2.6,0,3.8,0c1.2,0,2.5,0,3.7,0c1.3,0,2.6,0,3.8,0c1.2,0,2.5,0,3.7,0c1.3,0,2.6,0,3.8,0c1.3,0,2.6,0,3.8,0c1.2,0,2.4,0,3.6,0
	c1.3,0,2.6,0,3.8,0c1.2,0,2.5,0,3.7,0c1.3,0,2.6,0,3.8,0c1.2,0,2.5,0,3.7,0c1.3,0,2.6,0,3.8,0c1.3,0,2.6,0,3.8,0c1.2,0,2.5,0,3.7,0
	c1.3,0,2.6,0,3.8,0c1.2,0,2.5,0,3.7,0c1.3,0,2.6,0,3.8,0c1.3,0,2.6,0,3.8,0c1.2,0,2.3,0,3.5,0c1.3,0,2.6,0,3.8,0"/>
<path class="st15" d="M7.1,181.4c1.3,0,2.6,0,3.8,0c1.2,0,2.3,0,3.5,0c1.3,0,2.6,0,3.8,0c1.2,0,2.5,0,3.7,0c1.3,0,2.6,0,3.8,0
	c1.2,0,2.5,0,3.7,0c1.3,0,2.6,0,3.8,0c1.3,0,2.6,0,3.8,0c1.2,0,2.5,0,3.7,0c1.3,0,2.6,0,3.8,0c1.2,0,2.5,0,3.7,0c1.3,0,2.6,0,3.8,0
	c1.3,0,2.6,0,3.8,0c1.2,0,2.4,0,3.6,0c1.3,0,2.6,0,3.8,0c1.2,0,2.5,0,3.7,0c1.3,0,2.6,0,3.8,0c1.2,0,2.5,0,3.7,0c1.3,0,2.6,0,3.8,0
	c1.3,0,2.6,0,3.8,0c1.2,0,2.5,0,3.7,0c1.3,0,2.6,0,3.8,0c1.2,0,2.5,0,3.7,0c1.3,0,2.6,0,3.8,0c1.3,0,2.6,0,3.8,0c1.2,0,2.3,0,3.5,0
	c1.3,0,2.6,0,3.8,0c1.2,0,2.5,0,3.7,0c1.3,0,2.6,0,3.8,0c1.2,0,2.5,0,3.7,0c1.3,0,2.6-75.6,3.8-75.6c1.3,0,2.6,44.7,3.8,57.3
	c1.2,12.2,2.5,18.3,3.7,18.3c1.3,0,2.6-2.3,3.8-2.3c1.2,0,2.5,2.3,3.7,2.3c1.3,0,2.6-2.3,3.8-2.3c1.3,0,2.6,2.3,3.8,2.3
	c1.2,0,2.3,0,3.5,0c1.3,0,2.6,0,3.8,0c1.2,0,2.5,0,3.7,0c1.3,0,2.6,0,3.8,0c1.2,0,2.5,0,3.7,0c1.3,0,2.6,0,3.8,0c1.3,0,2.6,0,3.8,0
	c1.2,0,2.5,0,3.7,0c1.3,0,2.6,0,3.8,0c1.2,0,2.5,0,3.7,0c1.3,0,2.6,0,3.8,0c1.3,0,2.6,0,3.8,0c1.2,0,2.3,0,3.5,0c1.3,0,2.6,0,3.8,0
	c1.2,0,2.5,0,3.7,0c1.3,0,2.6,0,3.8,0c1.2,0,2.5,0,3.7,0c1.3,0,2.6,0,3.8,0c1.3,0,2.6,0,3.8,0c1.2,0,2.5,0,3.7,0c1.3,0,2.6,0,3.8,0
	c1.2,0,2.5,0,3.7,0c1.3,0,2.6,0,3.8,0c1.3,0,2.6,0,3.8,0c1.2,0,2.4,0,3.6,0c1.3,0,2.6,0,3.8,0c1.2,0,2.5,0,3.7,0c1.3,0,2.6,0,3.8,0
	c1.2,0,2.5,0,3.7,0c1.3,0,2.6,0,3.8,0c1.3,0,2.6,0,3.8,0c1.2,0,2.5,0,3.7,0c1.3,0,2.6,0,3.8,0c1.2,0,2.5,0,3.7,0c1.3,0,2.6,0,3.8,0
	c1.3,0,2.6,0,3.8,0c1.2,0,2.3,0,3.5,0c1.3,0,2.6,0,3.8,0"/>
<text transform="matrix(1 0 0 1 297.9058 58.1373)" class="st25 st35">Nepal</text>
<text transform="matrix(1 0 0 1 297.9058 79.1373)" class="st25 st35">Flint Michigan</text>
<text transform="matrix(1 0 0 1 297.9058 100.1373)" class="st25 st35">Fort McMurray</text>
<text transform="matrix(1 0 0 1 297.9058 119.1373)" class="st25 st35">Louisiana</text>
<text transform="matrix(1 0 0 1 297.9058 140.1373)" class="st25 st35">Haiti</text>
<text transform="matrix(1 0 0 1 297.9058 159.1373)" class="st25 st35">Texas</text>
<text transform="matrix(1 0 0 1 297.9058 181.1373)" class="st25 st35">Hurricane Harvey</text>
<text transform="matrix(1 0 0 1 297.9058 202.1373)" class="st25 st35">Puerto Rico</text>
<text transform="matrix(1 0 0 1 297.9058 223.1373)" class="st25 st35">Kerala</text>
<text transform="matrix(1 0 0 1 297.9058 244.1373)" class="st25 st35">Amazon fires</text>
<text transform="matrix(1 0 0 1 297.9058 286.1373)" class="st25 st35">Bahamas</text>
<text transform="matrix(1 0 0 1 297.9058 265.1373)" class="st25 st35">Australia fires</text>
<text transform="matrix(1 0 0 1 297.9058 307.1373)" class="st25 st35">Beirut</text>
<text transform="matrix(1 0 0 1 138.8193 36.0532)"><tspan x="0" y="0" class="st45 st55">In 2017, a few major </tspan><tspan x="0" y="14.4" class="st45 st55">hurricanes.</tspan></text>
<circle class="st65" cx="127.8" cy="143.7" r="16"/>
<g>
	<g>
		<path class="st65" d="M133.5,48.5c-23.6-2-50.5,49.6-22.8,73.3"/>
		<g>
			<polygon points="105.5,122.6 105.5,121.6 110.4,121.5 110,116.6 111,116.5 111.5,122.5 			"/>
		</g>
	</g>
</g>
<text transform="matrix(1 0 0 1 77.8541 321.5842)"><tspan x="0" y="0" class="st45 st55">Worsening wildfire </tspan><tspan x="0" y="14.4" class="st45 st55">events in 2019.</tspan></text>
<circle class="st65" cx="223.5" cy="237.5" r="16"/>
<g>
	<g>
		<path class="st65" d="M188.5,324.5c28.1,6.4,56.8-31.4,42.4-64"/>
		<g>
			<polygon points="236,262 235.6,262.9 231.1,260.9 229.4,265.5 228.4,265.1 230.5,259.5 			"/>
		</g>
	</g>
</g>
<text transform="matrix(1 0 0 1 7.6328 319.7012)" class="st75 st25 st35">2015</text>
<text transform="matrix(1 0 0 1 271.6328 319.7012)" class="st75 st25 st35">2020</text>
</svg>
