<?xml version="1.0" encoding="utf-8"?>
<!-- Generator: Adobe Illustrator 25.2.3, SVG Export Plug-In . SVG Version: 6.00 Build 0)  -->
<svg version="1.1" id="Layer_1" xmlns="http://www.w3.org/2000/svg" xmlns:xlink="http://www.w3.org/1999/xlink" x="0px" y="0px"
	 viewBox="0 0 375 400" style="enable-background:new 0 0 375 400;" xml:space="preserve">
<style type="text/css">
	.st0{opacity:0.3;fill:url(#SVGID_1_);enable-background:new    ;}
	.st1{fill:none;stroke:#AAAAAA;stroke-width:2;}
	.st2{fill:none;stroke:#AAAAAA;stroke-width:2;stroke-dasharray:1.99,1.99;}
	.st3{fill:none;stroke:#9E9E9E;}
	.st4{fill:none;stroke:#00BCD4;}
	.st5{fill:none;stroke:#9C27B0;}
	.st6{fill:#AAAAAA;}
	.st7{fill:none;stroke:#AAAAAA;}
	.st8{font-family:'Roboto-Regular';}
	.st9{font-size:12px;}
	.st10{font-family:'Roboto-Bold';}
	.st11{fill:#9C27B0;}
	.st12{font-size:10px;}
	.st13{fill:#9E9E9E;}
	.st14{fill:#00BCD4;}
	.st15{fill:none;stroke:#000000;stroke-miterlimit:10;}
</style>
<linearGradient id="SVGID_1_" gradientUnits="userSpaceOnUse" x1="234.842" y1="2.2752" x2="309.6518" y2="2.2752" gradientTransform="matrix(1 0 0 -1 -118.5 206)">
	<stop  offset="0.2708" style="stop-color:#AAAAAA"/>
	<stop  offset="1" style="stop-color:#FFFFFF"/>
</linearGradient>
<path class="st0" d="M191.2,361.7l-74.8-0.1V45.8l74.8,0.1V361.7z"/>
<path class="st1" d="M116.3,45.8v0.6"/>
<path class="st2" d="M116.3,47.5v313.6"/>
<path class="st1" d="M116.3,361.6v0.6"/>
<path class="st3" d="M40,359.8c25.9-27.9,51.9-55.8,77.8-55.8s51.9,27.4,77.8,36.3c25.9,8.8,51.9,16.7,77.8,16.7s51.9,0,77.8,0"/>
<path class="st3" d="M40,359.8c25.9-16.7,51.9-33.5,77.8-33.5s51.8,33.5,77.8,33.5c25.9,0,51.9,0,77.8,0s51.9,0,77.8,0"/>
<path class="st3" d="M40,359.8c25.9-7,51.9-13.9,77.8-13.9s51.9,0,77.8,0s51.8,6,77.8,8.3c25.9,2.3,51.9,4,77.8,5.6"/>
<path class="st3" d="M40,359.8c25.9-13.9,51.9-27.9,77.8-27.9s51.9,23.2,77.8,25.1c25.9,1.9,51.8,2.8,77.8,2.8s51.9,0,77.8,0"/>
<path class="st3" d="M40,359.8c25.9-13.9,51.9-27.9,77.8-27.9s51.8,27.9,77.8,27.9c25.9,0,51.9,0,77.8,0s51.9,0,77.8,0"/>
<path class="st3" d="M40,357c25.9-22.3,51.9-44.7,77.8-44.7s51.9,42.8,77.8,44.7c25.9,1.9,51.8,2.8,77.8,2.8s51.9-1.4,77.8-2.8"/>
<path class="st3" d="M40,359.8c25.9-13.9,51.9-27.9,77.8-27.9s51.8,27.9,77.8,27.9c25.9,0,51.9,0,77.8,0s51.9,0,77.8,0"/>
<path class="st3" d="M40,357c25.9-11.2,51.9-22.3,77.8-22.3s51.9,17.7,77.8,19.6c25.9,1.9,51.9,2.8,77.8,2.8s51.9,0,77.8,0"/>
<path class="st3" d="M40,351.4c25.9-36.3,51.9-72.6,77.8-72.6s51.9,76.3,77.8,78.2c25.9,1.9,51.8,2.8,77.8,2.8s51.9-1.4,77.8-2.8"/>
<path class="st3" d="M40,359.8c25.9-46,51.9-92.1,77.8-92.1s51.9,54.9,77.8,69.8c25.9,14.9,51.8,22.3,77.8,22.3s51.9-1.4,77.8-2.8"
	/>
<path class="st4" d="M40,359.8c25.9-61.4,51.9-122.8,77.8-122.8s51.9,58.6,77.8,78.2c25.9,19.6,51.9,39.1,77.8,39.1
	s51.9-1.4,77.8-2.8"/>
<path class="st3" d="M40,357c25.9-16.7,51.9-33.5,77.8-33.5s51.9,36.3,77.8,36.3s51.9,0,77.8,0s51.9,0,77.8,0"/>
<path class="st3" d="M40,357c25.9-16.7,51.9-33.5,77.8-33.5s51.9,36.3,77.8,36.3s51.9,0,77.8,0s51.9,0,77.8,0"/>
<path class="st3" d="M40,359.8c25.9-15.4,51.9-30.7,77.8-30.7s51.9,26.1,77.8,27.9c25.9,1.8,51.8,2.8,77.8,2.8s51.9,0,77.8,0"/>
<path class="st3" d="M40,359.8c25.9-30.7,51.9-61.4,77.8-61.4s51.9,56.7,77.8,58.6c25.9,1.9,51.8,2.8,77.8,2.8s51.9-1.4,77.8-2.8"/>
<path class="st3" d="M40,359.8c25.9-26.5,51.9-53.1,77.8-53.1s51.8,53.1,77.8,53.1c25.9,0,51.9,0,77.8,0s51.9,0,77.8,0"/>
<path class="st3" d="M40,348.6C66,319.3,91.9,290,117.9,290s51.9,65.1,77.8,67c25.9,1.9,51.8,2.8,77.8,2.8s51.9,0,77.8,0"/>
<path class="st5" d="M40,345.8C66,213.2,91.9,80.6,117.9,80.6s51.8,53.5,77.8,92.1c25.9,38.6,51.9,135.8,77.8,139.6
	c25.9,3.7,51.9,4.6,77.8,5.6"/>
<path class="st3" d="M40,340.2C66,290,91.9,239.7,117.9,239.7s51.9,114.5,77.8,114.5s51.9,0,77.8,0s51.9,1.4,77.8,2.8"/>
<path class="st3" d="M40,359.8c25.9-18.1,51.9-36.3,77.8-36.3s51.9,22.3,77.8,27.9s51.8,8.4,77.8,8.4s51.9-1.4,77.8-2.8"/>
<path class="st3" d="M40,359.8c25.9-11.2,51.9-22.3,77.8-22.3s51.8,22.3,77.8,22.3c25.9,0,51.9,0,77.8,0s51.9,0,77.8,0"/>
<path class="st3" d="M10.6,106.5v21.9"/>
<path class="st6" d="M8.7,108.2l0.3,0.4l1.6-1.9l1.6,1.9l0.3-0.4l-2-2.3L8.7,108.2z"/>
<path class="st7" d="M9.5,324.6v-17.4"/>
<path class="st6" d="M11.5,322.9l-0.4-0.4l-1.6,1.9l-1.6-1.9l-0.3,0.4l2,2.3L11.5,322.9z"/>
<text transform="matrix(1 0 0 1 9.1431 18.6928)"><tspan x="0" y="0" class="st8 st9">If we line up major</tspan><tspan x="0" y="14.4" class="st8 st9">crisis events since</tspan><tspan x="0" y="28.8" class="st8 st9">2015 when they </tspan><tspan x="0" y="43.2" class="st8 st9">saw </tspan><tspan x="24.7" y="43.2" class="st10 st9">peak </tspan><tspan x="53.8" y="43.2" class="st8 st9">interest...</tspan></text>
<text transform="matrix(1 0 0 1 299.1265 312.9804)" class="st11 st10 st12">Coronavirus</text>
<text transform="matrix(1 0 0 1 18.7598 115.1166)"><tspan x="0" y="0" class="st13 st8 st12">More</tspan><tspan x="0" y="12" class="st13 st8 st12">searches</tspan></text>
<text transform="matrix(1 0 0 1 15.7686 319.1166)" class="st13 st8 st12">Less</text>
<text transform="matrix(1 0 0 1 30.3299 375.1628)"><tspan x="0" y="0" class="st13 st8 st12">1 mth</tspan><tspan x="0" y="12" class="st13 st8 st12">before</tspan></text>
<text transform="matrix(1 0 0 1 112.3299 375.1628)"><tspan x="0" y="0" class="st13 st8 st12">Peak</tspan><tspan x="0" y="12" class="st13 st8 st12">interest</tspan></text>
<text transform="matrix(1 0 0 1 179.3299 374.1628)"><tspan x="0" y="0" class="st13 st8 st12">1 mth</tspan><tspan x="0" y="12" class="st13 st8 st12">after</tspan></text>
<text transform="matrix(1 0 0 1 262.3299 371.1628)"><tspan x="0" y="0" class="st13 st8 st12">2 mths</tspan><tspan x="0" y="12" class="st13 st8 st12">after</tspan></text>
<text transform="matrix(1 0 0 1 338.3299 372.1628)"><tspan x="0" y="0" class="st13 st8 st12">3 mths</tspan><tspan x="0" y="12" class="st13 st8 st12">after</tspan></text>
<text transform="matrix(1 0 0 1 123.2269 176.3387)"><tspan x="0" y="0" class="st8 st9">...we can see </tspan><tspan x="0" y="14.4" class="st8 st9">most events </tspan><tspan x="0" y="28.8" class="st8 st9">lose interest</tspan><tspan x="0" y="43.2" class="st8 st9">after just </tspan><tspan x="0" y="57.6" class="st10 st9">one month</tspan><tspan x="57.6" y="57.6" class="st8 st9">.</tspan></text>
<text transform="matrix(1 0 0 1 280.4314 346.6967)" class="st14 st10 st12">Hurricane Maria</text>
<text transform="matrix(1 0 0 1 259.7772 234.0872)"><tspan x="0" y="0" class="st8 st9">Only coronavirus </tspan><tspan x="0" y="14.4" class="st8 st9">and 2017’s </tspan><tspan x="0" y="28.8" class="st8 st9">Hurricane Maria</tspan><tspan x="0" y="43.2" class="st8 st9">are the exceptions.</tspan></text>
<g>
	<g>
		<path class="st15" d="M186.5,232.5c23.7,3,42.6,47.9,23.7,72.2"/>
		<g>
			<polygon points="208.8,299.5 209.8,299.4 210.4,304.3 215.2,303.4 215.4,304.4 209.5,305.5 			"/>
		</g>
	</g>
</g>
</svg>
