<?xml version="1.0" encoding="utf-8"?>
<!-- Generator: Adobe Illustrator 25.2.3, SVG Export Plug-In . SVG Version: 6.00 Build 0)  -->
<svg version="1.1" id="Layer_1" xmlns="http://www.w3.org/2000/svg" xmlns:xlink="http://www.w3.org/1999/xlink" x="0px" y="0px"
	 viewBox="0 0 375 138" style="enable-background:new 0 0 375 138;" xml:space="preserve">
<style type="text/css">
	.st08{fill:none;stroke:#FFD336;}
	.st18{font-family:'Roboto', sans-serif; font-weight: 100;}
	.st28{font-size:9px;}
	.st38{fill:#9E9E9E;}
</style>
<path class="st08" d="M9.5,88.9c1.3,0,2.6,0,3.8,0c1.2,0,2.3,0,3.5,0c1.3,0,2.6,0,3.8,0c1.2,0,2.5,0,3.7,0c1.3,0,2.6,0,3.8,0
	c1.2,0,2.5,0,3.7,0c1.3,0,2.6,0,3.8,0c1.3,0,2.6,0,3.8,0c1.2,0,2.5,0,3.7,0c1.3,0,2.6,0,3.8,0c1.2,0,2.5,0,3.7,0c1.3,0,2.6,0,3.8,0
	c1.3,0,2.6,0,3.8,0c1.2,0,2.4,0,3.6,0c1.3,0,2.6,0,3.8,0c1.2,0,2.5,0,3.7,0c1.3,0,2.6,0,3.8,0c1.2,0,2.5,0,3.7,0c1.3,0,2.6,0,3.8,0
	c1.3,0,2.6,0,3.8,0c1.2,0,2.5,0,3.7,0c1.3,0,2.6,0,3.8,0c1.2,0,2.5,0,3.7,0c1.3,0,2.6,0,3.8,0c1.3,0,2.6-2.3,3.8-2.3
	c1.2,0,2.3,0,3.5,0c1.3,0,2.6,2.3,3.8,2.3c1.2,0,2.5-2.3,3.7-2.3c1.3,0,2.6,2.3,3.8,2.3c1.2,0,2.5,0,3.7,0c1.3,0,2.6,0,3.8,0
	c1.3,0,2.6,0,3.8,0c1.2,0,2.5,0,3.7,0c1.3,0,2.6,0,3.8,0c1.2,0,2.5,0,3.7,0c1.3,0,2.6,0,3.8,0s2.6,0,3.8,0c1.2,0,2.3-2.3,3.5-2.3
	c1.3,0,2.6,2.3,3.8,2.3c1.2,0,2.5,0,3.7,0c1.3,0,2.6,0,3.8,0c1.2,0,2.5,0,3.7,0c1.3,0,2.6,0,3.8,0c1.3,0,2.6,0,3.8,0
	c1.2,0,2.5,0,3.7,0c1.3,0,2.6,0,3.8,0c1.2,0,2.5,0,3.7,0c1.3,0,2.6,0,3.8,0c1.3,0,2.6,0,3.8,0c1.2,0,2.3,0,3.5,0c1.3,0,2.6,0,3.8,0
	c1.2,0,2.5,0,3.7,0c1.3,0,2.6-25.2,3.8-25.2c1.2,0,2.5,21.4,3.7,22.9c1.3,1.5,2.6,2.3,3.8,2.3c1.3,0,2.6,0,3.8,0c1.2,0,2.5,0,3.7,0
	c1.3,0,2.6,0,3.8,0c1.2,0,2.5,0,3.7,0c1.3,0,2.6,0,3.8,0c1.3,0,2.6,0,3.8,0c1.2,0,2.4,0,3.6,0c1.3,0,2.6,0,3.8,0c1.2,0,2.5,0,3.7,0
	c1.3,0,2.6,0,3.8,0c1.2,0,2.5,0,3.7,0c1.3,0,2.6,0,3.8,0c1.3,0,2.6,0,3.8,0c1.2,0,2.5,0,3.7,0c1.3,0,2.6,0,3.8,0c1.2,0,2.5,0,3.7,0
	c1.3,0,2.6,0,3.8,0s2.6,0,3.8,0c1.2,0,2.3,0,3.5,0c1.3,0,2.6,0,3.8,0"/>
<path class="st08" d="M9.5,105.9c1.3,0,2.6,0,3.8,0c1.2,0,2.3,0,3.5,0c1.3,0,2.6,0,3.8,0c1.2,0,2.5,0,3.7,0c1.3,0,2.6,0,3.8,0
	c1.2,0,2.5,0,3.7,0c1.3,0,2.6,0,3.8,0c1.3,0,2.6,0,3.8,0c1.2,0,2.5,0,3.7,0c1.3,0,2.6,0,3.8,0c1.2,0,2.5,0,3.7,0c1.3,0,2.6,0,3.8,0
	c1.3,0,2.6,0,3.8,0c1.2,0,2.4,0,3.6,0c1.3,0,2.6,0,3.8,0c1.2,0,2.5,0,3.7,0c1.3,0,2.6,0,3.8,0c1.2,0,2.5-2.3,3.7-2.3
	c1.3,0,2.6,2.3,3.8,2.3c1.3,0,2.6,0,3.8,0c1.2,0,2.5,0,3.7,0c1.3,0,2.6,0,3.8,0c1.2,0,2.5,0,3.7,0c1.3,0,2.6,0,3.8,0
	c1.3,0,2.6,0,3.8,0c1.2,0,2.3,0,3.5,0c1.3,0,2.6,0,3.8,0c1.2,0,2.5,0,3.7,0c1.3,0,2.6,0,3.8,0c1.2,0,2.5,0,3.7,0
	c1.3,0,2.6-2.3,3.8-2.3c1.3,0,2.6,2.3,3.8,2.3c1.2,0,2.5,0,3.7,0c1.3,0,2.6,0,3.8,0c1.2,0,2.5,0,3.7,0c1.3,0,2.6-2.3,3.8-2.3
	s2.6,2.3,3.8,2.3c1.2,0,2.3,0,3.5,0c1.3,0,2.6,0,3.8,0c1.2,0,2.5,0,3.7,0c1.3,0,2.6,0,3.8,0c1.2,0,2.5,0,3.7,0c1.3,0,2.6,0,3.8,0
	c1.3,0,2.6,0,3.8,0c1.2,0,2.5,0,3.7,0c1.3,0,2.6,0,3.8,0c1.2,0,2.5,0,3.7,0c1.3,0,2.6,0,3.8,0c1.3,0,2.6,0,3.8,0c1.2,0,2.3,0,3.5,0
	c1.3,0,2.6,0,3.8,0c1.2,0,2.5,0,3.7,0c1.3,0,2.6,0,3.8,0c1.2,0,2.5,0,3.7,0c1.3,0,2.6,0,3.8,0c1.3,0,2.6,0,3.8,0c1.2,0,2.5,0,3.7,0
	c1.3,0,2.6,0,3.8,0c1.2,0,2.5,0,3.7,0c1.3,0,2.6,0,3.8,0c1.3,0,2.6,0,3.8,0c1.2,0,2.4,0,3.6,0c1.3,0,2.6,0,3.8,0
	c1.2,0,2.5-5.3,3.7-16c1.3-11.1,2.6-82.5,3.8-82.5c1.2,0,2.5,94,3.7,94c1.3,0,2.6,0,3.8,0c1.3,0,2.6,2.3,3.8,2.3c1.2,0,2.5,0,3.7,0
	c1.3,0,2.6,2.3,3.8,2.3c1.2,0,2.5,0,3.7,0c1.3,0,2.6-2.3,3.8-2.3s2.6,0,3.8,0c1.2,0,2.3,0,3.5,0c1.3,0,2.6,1.1,3.8,2.3"/>
<path class="st08" d="M9.5,70.6c1.3,0,2.6,0,3.8,0c1.2,0,2.3,0,3.5,0c1.3,0,2.6,0,3.8,0c1.2,0,2.5,0,3.7,0c1.3,0,2.6,0,3.8,0
	c1.2,0,2.5,0,3.7,0c1.3,0,2.6,0,3.8,0c1.3,0,2.6,0,3.8,0c1.2,0,2.5,0,3.7,0c1.3,0,2.6,0,3.8,0c1.2,0,2.5,0,3.7,0c1.3,0,2.6,0,3.8,0
	c1.3,0,2.6,0,3.8,0c1.2,0,2.4,0,3.6,0c1.3,0,2.6,0,3.8,0c1.2,0,2.5,0,3.7,0c1.3,0,2.6,0,3.8,0c1.2,0,2.5,0,3.7,0c1.3,0,2.6,0,3.8,0
	c1.3,0,2.6-2.3,3.8-2.3c1.2,0,2.5,0,3.7,0c1.3,0,2.6-18.2,3.8-18.2c1.2,0,2.5,14.5,3.7,16c1.3,1.5,2.6,2.3,3.8,2.3
	c1.3,0,2.6,0,3.8,0c1.2,0,2.3,2.3,3.5,2.3c1.3,0,2.6-2.3,3.8-2.3c1.2,0,2.5,2.3,3.7,2.3c1.3,0,2.6,0,3.8,0c1.2,0,2.5,0,3.7,0
	c1.3,0,2.6,0,3.8,0c1.3,0,2.6,0,3.8,0c1.2,0,2.5,0,3.7,0c1.3,0,2.6,0,3.8,0c1.2,0,2.5,0,3.7,0c1.3,0,2.6,0,3.8,0s2.6,0,3.8,0
	c1.2,0,2.3,0,3.5,0c1.3,0,2.6,0,3.8,0c1.2,0,2.5,0,3.7,0c1.3,0,2.6,0,3.8,0c1.2,0,2.5,0,3.7,0c1.3,0,2.6,0,3.8,0c1.3,0,2.6,0,3.8,0
	c1.2,0,2.5,0,3.7,0c1.3,0,2.6,0,3.8,0c1.2,0,2.5,0,3.7,0c1.3,0,2.6,0,3.8,0c1.3,0,2.6,0,3.8,0c1.2,0,2.3,0,3.5,0c1.3,0,2.6,0,3.8,0
	c1.2,0,2.5,0,3.7,0c1.3,0,2.6,0,3.8,0c1.2,0,2.5,0,3.7,0c1.3,0,2.6,0,3.8,0c1.3,0,2.6,0,3.8,0c1.2,0,2.5,0,3.7,0c1.3,0,2.6,0,3.8,0
	c1.2,0,2.5,0,3.7,0c1.3,0,2.6,0,3.8,0c1.3,0,2.6,0,3.8,0c1.2,0,2.4,0,3.6,0c1.3,0,2.6,0,3.8,0c1.2,0,2.5,0,3.7,0c1.3,0,2.6,0,3.8,0
	c1.2,0,2.5,0,3.7,0c1.3,0,2.6,0,3.8,0c1.3,0,2.6,0,3.8,0c1.2,0,2.5,0,3.7,0c1.3,0,2.6,0,3.8,0c1.2,0,2.5,0,3.7,0c1.3,0,2.6,0,3.8,0
	s2.6,0,3.8,0c1.2,0,2.3,0,3.5,0c1.3,0,2.6,0,3.8,0"/>
<text transform="matrix(1 0 0 1 299.5728 70.8467)" class="st18 st28">Standing Rock</text>
<text transform="matrix(1 0 0 1 299.5728 89.8467)" class="st18 st28">Sudan</text>
<text transform="matrix(1 0 0 1 299.5728 107.8467)"><tspan x="0" y="0" class="st18 st28">Black Lives</tspan><tspan x="0" y="12" class="st18 st28">Matter</tspan></text>
<text transform="matrix(1 0 0 1 7.5331 129.0506)" class="st38 st18 st28">2015</text>
<text transform="matrix(1 0 0 1 271.5331 129.0506)" class="st38 st18 st28">2020</text>
</svg>
