<?xml version="1.0" encoding="utf-8"?>
<!-- Generator: Adobe Illustrator 25.2.3, SVG Export Plug-In . SVG Version: 6.00 Build 0)  -->
<svg version="1.1" xmlns="http://www.w3.org/2000/svg" xmlns:xlink="http://www.w3.org/1999/xlink" x="0px" y="0px"
	 viewBox="0 0 1375 636" style="enable-background:new 0 0 1375 636;" xml:space="preserve">
<style type="text/css">
	.st0{opacity:0.3;fill:url(#SVGID_1_);}
	.st1{fill:none;stroke:#AAAAAA;stroke-width:2;}
	.st2{fill:none;stroke:#AAAAAA;stroke-width:2;stroke-dasharray:1.9937,1.9937;}
	.st3{fill:none;stroke:#F12E90;stroke-width:2;}
	.st4{fill:none;stroke:#43A9DD;stroke-width:2;}
	.st5{enable-background:new    ;}
	.st6{fill:#696969;}
	.st7{font-family:'OpenSans-Regular';}
	.st8{font-size:14px;}
	.st9{fill:none;stroke:#AAAAAA;}
	.st10{fill:#AAAAAA;}
	.st11{font-size:17px;}
	.st12{font-family:'OpenSans-Bold';}
	.st13{fill:#F12E90;}
	.st14{fill:#FFFFFF;}
	.st15{font-size:15px;}
	.st16{fill:#43A9DD;}
</style>
<g id="gradient">
	<linearGradient id="SVGID_1_" gradientUnits="userSpaceOnUse" x1="442.6141" y1="311.0982" x2="746.1943" y2="311.0982">
		<stop  offset="0.5382" style="stop-color:#AAAAAA"/>
		<stop  offset="1" style="stop-color:#FFFFFF"/>
	</linearGradient>
	<polygon class="st0" points="746.2,589 442.6,590.4 442.6,33.2 746.2,31.8 	"/>
	<g>
		<g>
			<line class="st1" x1="442.6" y1="33.2" x2="442.6" y2="34.2"/>
			<line class="st2" x1="442.6" y1="36.2" x2="442.6" y2="589.4"/>
			<line class="st1" x1="442.6" y1="590.4" x2="442.6" y2="591.4"/>
		</g>
	</g>
</g>
<g id="lines">
	<g>
		<path pointer-events="none" class="st1" d="M185.2,586c87.1-49.2,174.2-98.5,261.3-98.5s174.2,48.4,261.3,64
			s174.2,29.5,261.3,29.5s174.2,0,261.3,0"/>
	</g>
	<g>
		<path pointer-events="none" class="st1" d="M185.2,586c87.1-29.5,174.2-59.1,261.3-59.1S620.6,586,707.7,586s174.2,0,261.3,0
			s174.2,0,261.3,0"/>
	</g>
	<g>
		<path pointer-events="none" class="st1" d="M185.2,586c87.1-12.3,174.2-24.6,261.3-24.6s174.2,0,261.3,0S881.9,572,969,576.1
			c87.1,4.1,174.2,7,261.3,9.8"/>
	</g>
	<g>
		<path pointer-events="none" class="st1" d="M185.2,586c87.1-24.6,174.2-49.2,261.3-49.2s174.2,41,261.3,44.3S881.9,586,969,586
			s174.2,0,261.3,0"/>
	</g>
	<g>
		<path pointer-events="none" class="st1" d="M185.2,586c87.1-24.6,174.2-49.2,261.3-49.2S620.6,586,707.7,586s174.2,0,261.3,0
			s174.2,0,261.3,0"/>
	</g>
	<g>
		<path pointer-events="none" class="st1" d="M185.2,581.1c87.1-39.4,174.2-78.8,261.3-78.8s174.2,75.5,261.3,78.8
			S881.9,586,969,586s174.2-2.5,261.3-4.9"/>
	</g>
	<g>
		<path pointer-events="none" class="st1" d="M185.2,586c87.1-24.6,174.2-49.2,261.3-49.2S620.6,586,707.7,586s174.2,0,261.3,0
			s174.2,0,261.3,0"/>
	</g>
	<g>
		<path pointer-events="none" class="st1" d="M185.2,581.1c87.1-19.7,174.2-39.4,261.3-39.4s174.2,31.2,261.3,34.5
			c87.1,3.3,174.2,4.9,261.3,4.9s174.2,0,261.3,0"/>
	</g>
	<g>
		<path pointer-events="none" class="st1" d="M185.2,571.2c87.1-64,174.2-128,261.3-128s174.2,134.6,261.3,137.9S881.9,586,969,586
			s174.2-2.5,261.3-4.9"/>
	</g>
	<g>
		<path pointer-events="none" class="st1" d="M185.2,586c87.1-81.2,174.2-162.5,261.3-162.5s174.2,96.8,261.3,123.1
			S881.9,586,969,586s174.2-2.5,261.3-4.9"/>
	</g>
	<g>
		<path pointer-events="none" class="st1" d="M185.2,586c87.1-108.3,174.2-216.7,261.3-216.7s174.2,103.4,261.3,137.9
			s174.2,68.9,261.3,68.9s174.2-2.5,261.3-4.9"/>
	</g>
	<g>
		<path pointer-events="none" class="st1" d="M185.2,581.1c87.1-29.5,174.2-59.1,261.3-59.1s174.2,64,261.3,64s174.2,0,261.3,0
			s174.2,0,261.3,0"/>
	</g>
	<g>
		<path pointer-events="none" class="st1" d="M185.2,581.1c87.1-29.5,174.2-59.1,261.3-59.1s174.2,64,261.3,64s174.2,0,261.3,0
			s174.2,0,261.3,0"/>
	</g>
	<g>
		<path pointer-events="none" class="st1" d="M185.2,586c87.1-27.1,174.2-54.2,261.3-54.2s174.2,46,261.3,49.2S881.9,586,969,586
			s174.2,0,261.3,0"/>
	</g>
	<g>
		<path pointer-events="none" class="st1" d="M185.2,586c87.1-54.2,174.2-108.3,261.3-108.3s174.2,100.1,261.3,103.4
			S881.9,586,969,586s174.2-2.5,261.3-4.9"/>
	</g>
	<g>
		<path pointer-events="none" class="st1" d="M185.2,586c87.1-46.8,174.2-93.6,261.3-93.6S620.6,586,707.7,586s174.2,0,261.3,0
			s174.2,0,261.3,0"/>
	</g>
	<g>
		<path pointer-events="none" class="st1" d="M185.2,566.3c87.1-51.7,174.2-103.4,261.3-103.4s174.2,114.9,261.3,118.2
			S881.9,586,969,586s174.2,0,261.3,0"/>
	</g>
	<g>
		<path pointer-events="none" class="st3" d="M185.2,561.4C272.3,327.5,359.4,93.6,446.5,93.6S620.6,188,707.7,256.1
			S881.9,495.7,969,502.3s174.2,8.2,261.3,9.8"/>
	</g>
	<g>
		<path pointer-events="none" class="st4" d="M185.2,551.5c87.1-88.6,174.2-177.3,261.3-177.3s174.2,201.9,261.3,201.9
			s174.2,0,261.3,0s174.2,2.5,261.3,4.9"/>
	</g>
	<g>
		<path pointer-events="none" class="st1" d="M185.2,586c87.1-32,174.2-64,261.3-64s174.2,39.4,261.3,49.2S881.9,586,969,586
			s174.2-2.5,261.3-4.9"/>
	</g>
	<g>
		<path pointer-events="none" class="st1" d="M185.2,586c87.1-19.7,174.2-39.4,261.3-39.4S620.6,586,707.7,586s174.2,0,261.3,0
			s174.2,0,261.3,0"/>
	</g>
	<g>
		<g transform="translate(0, 0)">
		</g>
	</g>
</g>
<g id="axis">
	<g transform="translate(0,0)">
		<g>
			<g>
				<g>
					<g>
						<g>
							<g transform="translate(40.164450073242186,9.675)">
								<text transform="matrix(1 0 0 1 84.7169 130.0212)" class="st5"><tspan x="0" y="0" class="st6 st7 st8">More</tspan><tspan x="-23.2" y="16.8" class="st6 st7 st8">searches</tspan></text>
							</g>
						</g>
					</g>
				</g>
			</g>
		</g>
	</g>
	<g>
		<g>
			<g transform="translate(40.164450073242186,9.675)">
				<text transform="matrix(1 0 0 1 90.6166 520.4844)" class="st6 st7 st8">Less</text>
			</g>
		</g>
	</g>
	<g>
		<g>
			<g transform="translate(40.164450073242186,9.675)">
				<text transform="matrix(1 0 0 1 142.5424 594.3422)" class="st5"><tspan x="0" y="0" class="st6 st7 st8">One month </tspan><tspan x="0" y="16.8" class="st6 st7 st8">before</tspan></text>
			</g>
		</g>
	</g>
	<g>
		<g>
			<g transform="translate(40.164450073242186,9.675)">
				<text transform="matrix(1 0 0 1 598.4608 594.3422)" class="st5"><tspan x="0" y="0" class="st6 st7 st8">One month</tspan><tspan x="0" y="16.8" class="st6 st7 st8">after</tspan></text>
			</g>
		</g>
	</g>
	<g>
		<g>
			<g transform="translate(40.164450073242186,9.675)">
				<text transform="matrix(1 0 0 1 857.858 594.3422)" class="st5"><tspan x="0" y="0" class="st6 st7 st8">Two months</tspan><tspan x="0" y="16.8" class="st6 st7 st8">after</tspan></text>
			</g>
		</g>
	</g>
	<g>
		<g>
			<g transform="translate(40.164450073242186,9.675)">
				<text transform="matrix(1 0 0 1 1142.4894 594.3422)" class="st5"><tspan x="0" y="0" class="st6 st7 st8">Three months</tspan><tspan x="0" y="16.8" class="st6 st7 st8">after</tspan></text>
			</g>
		</g>
	</g>
	<g>
		<g>
			<line class="st9" x1="172.6" y1="124.1" x2="172.6" y2="157.6"/>
			<g>
				<polygon class="st10" points="168.6,127.4 169.3,128.1 172.6,124.5 176,128.1 176.7,127.4 172.6,123 				"/>
			</g>
		</g>
	</g>
	<g>
		<g>
			<line class="st9" x1="172.4" y1="542.9" x2="172.4" y2="509.4"/>
			<g>
				<polygon class="st10" points="176.5,539.6 175.7,538.9 172.4,542.5 169,538.9 168.3,539.6 172.4,544 				"/>
			</g>
		</g>
	</g>
</g>
<g id="annotation">
	<g>
		<g>
			<g transform="translate(40.164450073242186,9.675)">
				<text transform="matrix(1 0 0 1 431.3306 258.5074)" class="st5"><tspan x="0" y="0" class="st7 st11">For most major events,</tspan><tspan x="0" y="20.4" class="st7 st11">peak interest lasts for no </tspan><tspan x="0" y="40.8" class="st7 st11">more than </tspan><tspan x="87.7" y="40.8" class="st12 st11">one month</tspan><tspan x="180.8" y="40.8" class="st7 st11">.</tspan></text>
			</g>
		</g>
	</g>
</g>
<g id="linelabels">
	<path class="st13" d="M359.8,254.7H269c-6.6,0-12-5.4-12-12v-10.8c0-6.6,5.4-12,12-12h90.8c6.6,0,12,5.4,12,12v10.8
		C371.8,249.3,366.4,254.7,359.8,254.7z"/>
	<g>
		<g>
			<g transform="translate(40.164450073242186,9.675)">
				<text transform="matrix(1 0 0 1 230.8438 233.6801)" class="st14 st12 st15">Coronavirus</text>
			</g>
		</g>
	</g>
	<path class="st16" d="M649.6,494.4h-138c-6.6,0-12-5.4-12-12v-10.8c0-6.6,5.4-12,12-12h138c6.6,0,12,5.4,12,12v10.8
		C661.6,489,656.2,494.4,649.6,494.4z"/>
	<g>
		<g>
			<g transform="translate(40.164450073242186,9.675)">
				<text transform="matrix(1 0 0 1 473.4734 473.3509)" class="st14 st12 st15">Black Lives Matter</text>
			</g>
		</g>
	</g>
	<g>
		<g>
			<g transform="translate(40.164450073242186,9.675)">
				<text transform="matrix(1 0 0 1 411.2393 40.721)" class="st5"><tspan x="0" y="0" class="st6 st7 st8">Month</tspan><tspan x="0" y="16.8" class="st6 st7 st8">of </tspan><tspan x="16.8" y="16.8" class="st6 st12 st8">peak</tspan><tspan x="0" y="33.6" class="st6 st7 st8">interest</tspan></text>
			</g>
		</g>
	</g>
</g>
</svg>
